<?xml version="1.0" encoding="utf-8"?>
<!-- Generator: Adobe Illustrator 17.0.0, SVG Export Plug-In . SVG Version: 6.00 Build 0)  -->
<!DOCTYPE svg PUBLIC "-//W3C//DTD SVG 1.1//EN" "http://www.w3.org/Graphics/SVG/1.1/DTD/svg11.dtd">
<svg version="1.1" id="Layer_1" xmlns="http://www.w3.org/2000/svg" xmlns:xlink="http://www.w3.org/1999/xlink" x="0px" y="0px"
	 width="100px" height="100px" viewBox="0 0 100 100" enable-background="new 0 0 100 100" xml:space="preserve">
<path fill="#FFFFFF" d="M91.485,19.792H8.252c-2.418,0-4.381-1.963-4.381-4.379c0-2.418,1.963-4.381,4.381-4.381h83.233
	c2.418,0,4.381,1.963,4.381,4.381C95.866,17.829,93.905,19.792,91.485,19.792z M12.633,28.555h65.71
	c2.418,0,4.381,1.963,4.381,4.381s-1.963,4.379-4.381,4.379h-65.71c-2.418,0-4.381-1.963-4.381-4.379
	C8.252,30.515,10.215,28.555,12.633,28.555z M38.917,46.077h48.189c2.418,0,4.379,1.963,4.379,4.379
	c0,2.418-1.961,4.381-4.379,4.381H38.917c-2.418,0-4.379-1.963-4.379-4.381C34.537,48.04,36.498,46.077,38.917,46.077z
	 M43.298,81.123h13.142c2.418,0,4.381,1.963,4.381,4.379c0,2.418-1.963,4.381-4.381,4.381H43.298c-2.418,0-4.381-1.963-4.381-4.381
	C38.917,83.086,40.879,81.123,43.298,81.123z M45.488,67.979c0-2.418,1.963-4.379,4.381-4.379h30.664
	c2.418,0,4.381,1.963,4.381,4.379c0,2.418-1.963,4.381-4.381,4.381H49.87C47.451,72.36,45.488,70.4,45.488,67.979z"/>
</svg>
