<?xml version="1.0" encoding="utf-8"?>
<!-- Generator: Adobe Illustrator 17.0.0, SVG Export Plug-In . SVG Version: 6.00 Build 0)  -->
<!DOCTYPE svg PUBLIC "-//W3C//DTD SVG 1.1//EN" "http://www.w3.org/Graphics/SVG/1.1/DTD/svg11.dtd">
<svg version="1.1" id="Layer_1" xmlns="http://www.w3.org/2000/svg" xmlns:xlink="http://www.w3.org/1999/xlink" x="0px" y="0px"
	 width="100px" height="100px" viewBox="0 0 100 100" enable-background="new 0 0 100 100" xml:space="preserve">
<path fill="#FFFFFF" d="M91.032,20.125H8.705c-2.392,0-4.334-1.941-4.334-4.331c0-2.392,1.941-4.334,4.334-4.334h82.328
	c2.392,0,4.334,1.941,4.334,4.334C95.366,18.184,93.427,20.125,91.032,20.125z M13.038,28.793h64.995
	c2.392,0,4.334,1.941,4.334,4.334c0,2.392-1.941,4.331-4.334,4.331H13.038c-2.392,0-4.334-1.941-4.334-4.331
	C8.705,30.732,10.646,28.793,13.038,28.793z M39.036,46.125h47.665c2.392,0,4.331,1.941,4.331,4.331
	c0,2.392-1.939,4.334-4.331,4.334H39.036c-2.392,0-4.331-1.941-4.331-4.334C34.704,48.066,36.643,46.125,39.036,46.125z
	 M43.369,80.79h12.999c2.392,0,4.334,1.941,4.334,4.331c0,2.392-1.941,4.334-4.334,4.334H43.369c-2.392,0-4.334-1.941-4.334-4.334
	C39.036,82.731,40.977,80.79,43.369,80.79z M45.536,67.789c0-2.392,1.941-4.331,4.334-4.331h30.331c2.392,0,4.334,1.941,4.334,4.331
	c0,2.392-1.941,4.334-4.334,4.334H49.87C47.477,72.122,45.536,70.183,45.536,67.789z"/>
</svg>
