<?xml version="1.0" encoding="utf-8"?>
<!-- Generator: Adobe Illustrator 17.0.0, SVG Export Plug-In . SVG Version: 6.00 Build 0)  -->
<!DOCTYPE svg PUBLIC "-//W3C//DTD SVG 1.1//EN" "http://www.w3.org/Graphics/SVG/1.1/DTD/svg11.dtd">
<svg version="1.1" id="Layer_1" xmlns="http://www.w3.org/2000/svg" xmlns:xlink="http://www.w3.org/1999/xlink" x="0px" y="0px"
	 width="100px" height="100px" viewBox="0 0 100 100" enable-background="new 0 0 100 100" xml:space="preserve">
<path fill="#FFFFFF" d="M76.883,68.539v-8.431c4.593-2.665,7.694-7.622,7.694-13.316c0-8.502-6.889-15.395-15.391-15.395
	c-3.083,0-5.935,0.926-8.34,2.484C58.475,23.651,49.351,16.004,38.4,16.004c-12.753,0-23.088,10.338-23.088,23.09
	c0,6.83,2.981,12.949,7.694,17.177v9.456C13.812,60.401,7.614,50.483,7.614,39.094c0-17.004,13.782-30.786,30.786-30.786
	c11.554,0,21.608,6.373,26.874,15.785c1.278-0.217,2.571-0.394,3.912-0.394c12.753,0,23.088,10.34,23.088,23.092
	C92.274,56.839,85.845,65.367,76.883,68.539z M34.551,46.794c2.124,0,3.849,1.722,3.849,3.849v7.694
	c0,2.126-1.724,3.849-3.849,3.849c-2.126,0-3.849-1.722-3.849-3.849v-7.694C30.702,48.514,32.425,46.794,34.551,46.794z
	 M34.551,69.882c2.124,0,3.849,1.722,3.849,3.849v7.694c0,2.126-1.724,3.849-3.849,3.849c-2.126,0-3.849-1.722-3.849-3.849v-7.694
	C30.702,71.602,32.425,69.882,34.551,69.882z M49.942,54.487c2.126,0,3.849,1.724,3.849,3.849v7.697
	c0,2.124-1.722,3.849-3.849,3.849c-2.124,0-3.845-1.724-3.845-3.849v-7.697C46.097,56.211,47.82,54.487,49.942,54.487z
	 M49.942,77.579c2.126,0,3.849,1.722,3.849,3.845v7.697c0,2.126-1.722,3.849-3.849,3.849c-2.124,0-3.845-1.722-3.845-3.849v-7.697
	C46.097,79.3,47.82,77.579,49.942,77.579z M65.337,46.794c2.124,0,3.849,1.722,3.849,3.849v7.694c0,2.126-1.724,3.849-3.849,3.849
	c-2.126,0-3.849-1.722-3.849-3.849v-7.694C61.488,48.514,63.21,46.794,65.337,46.794z M65.337,69.882
	c2.124,0,3.849,1.722,3.849,3.849v7.694c0,2.126-1.724,3.849-3.849,3.849c-2.126,0-3.849-1.722-3.849-3.849v-7.694
	C61.488,71.602,63.21,69.882,65.337,69.882z"/>
</svg>
