<?xml version="1.0" encoding="utf-8"?>
<!-- Generator: Adobe Illustrator 17.0.0, SVG Export Plug-In . SVG Version: 6.00 Build 0)  -->
<!DOCTYPE svg PUBLIC "-//W3C//DTD SVG 1.1//EN" "http://www.w3.org/Graphics/SVG/1.1/DTD/svg11.dtd">
<svg version="1.1" id="Layer_1" xmlns="http://www.w3.org/2000/svg" xmlns:xlink="http://www.w3.org/1999/xlink" x="0px" y="0px"
	 width="100px" height="100px" viewBox="0 0 100 100" enable-background="new 0 0 100 100" xml:space="preserve">
<path fill="#FFFFFF" d="M77.306,67.819v-8.563c4.67-2.703,7.819-7.742,7.819-13.526c0-8.634-7.001-15.635-15.637-15.635
	c-3.127,0-6.024,0.938-8.469,2.523C58.612,22.225,49.341,14.46,38.218,14.46c-12.951,0-23.452,10.5-23.452,23.452
	c0,6.939,3.032,13.151,7.819,17.445v9.609c-9.337-5.41-15.637-15.485-15.637-27.054c0-17.269,14.001-31.268,31.27-31.268
	c11.736,0,21.949,6.472,27.296,16.034c1.298-0.221,2.615-0.401,3.974-0.401c12.953,0,23.454,10.5,23.454,23.454
	C92.942,55.939,86.411,64.598,77.306,67.819z M34.31,45.732c2.158,0,3.907,1.751,3.907,3.909v31.27c0,2.16-1.749,3.909-3.907,3.909
	c-2.158,0-3.909-1.749-3.909-3.909v-31.27C30.401,47.483,32.152,45.732,34.31,45.732z M49.945,53.55
	c2.158,0,3.909,1.749,3.909,3.909v31.27c0,2.158-1.751,3.909-3.909,3.909s-3.909-1.751-3.909-3.909V57.46
	C46.036,55.298,47.788,53.55,49.945,53.55z M65.581,45.732c2.158,0,3.907,1.751,3.907,3.909v31.27c0,2.16-1.749,3.909-3.907,3.909
	s-3.909-1.749-3.909-3.909v-31.27C61.671,47.483,63.423,45.732,65.581,45.732z"/>
</svg>
