<?xml version="1.0" encoding="utf-8"?>
<!-- Generator: Adobe Illustrator 17.0.0, SVG Export Plug-In . SVG Version: 6.00 Build 0)  -->
<!DOCTYPE svg PUBLIC "-//W3C//DTD SVG 1.1//EN" "http://www.w3.org/Graphics/SVG/1.1/DTD/svg11.dtd">
<svg version="1.1" id="Layer_1" xmlns="http://www.w3.org/2000/svg" xmlns:xlink="http://www.w3.org/1999/xlink" x="0px" y="0px"
	 width="100px" height="100px" viewBox="0 0 100 100" enable-background="new 0 0 100 100" xml:space="preserve">
<path fill="#FFFFFF" d="M78.261,69.453v-8.862c4.833-2.798,8.091-8.012,8.091-13.998c0-8.935-7.246-16.181-16.183-16.181
	c-3.237,0-6.234,0.971-8.765,2.611c-2.49-10.755-12.084-18.792-23.596-18.792c-13.403,0-24.27,10.867-24.27,24.27
	c0,7.181,3.137,13.61,8.091,18.054V66.5C11.967,60.901,5.448,50.475,5.448,38.502c0-17.872,14.489-32.359,32.361-32.359
	c12.145,0,22.714,6.698,28.249,16.593c1.343-0.229,2.707-0.415,4.112-0.415c13.405,0,24.272,10.867,24.272,24.272
	C94.441,57.159,87.683,66.12,78.261,69.453z M33.765,46.595c2.233,0,4.044,1.812,4.044,4.046v32.361c0,2.235-1.81,4.046-4.044,4.046
	c-2.233,0-4.046-1.81-4.046-4.046V50.641C29.719,48.408,31.532,46.595,33.765,46.595z M49.946,54.687
	c2.233,0,4.046,1.81,4.046,4.046v32.361c0,2.233-1.812,4.046-4.046,4.046S45.9,93.327,45.9,91.093V58.732
	C45.9,56.495,47.712,54.687,49.946,54.687z M66.126,46.595c2.233,0,4.044,1.812,4.044,4.046v32.361c0,2.235-1.81,4.046-4.044,4.046
	c-2.233,0-4.046-1.81-4.046-4.046V50.641C62.08,48.408,63.893,46.595,66.126,46.595z"/>
</svg>
