<?xml version="1.0" encoding="utf-8"?>
<!-- Generator: Adobe Illustrator 17.0.0, SVG Export Plug-In . SVG Version: 6.00 Build 0)  -->
<!DOCTYPE svg PUBLIC "-//W3C//DTD SVG 1.1//EN" "http://www.w3.org/Graphics/SVG/1.1/DTD/svg11.dtd">
<svg version="1.1" id="Layer_1" xmlns="http://www.w3.org/2000/svg" xmlns:xlink="http://www.w3.org/1999/xlink" x="0px" y="0px"
	 width="100px" height="100px" viewBox="0 0 100 100" enable-background="new 0 0 100 100" xml:space="preserve">
<path fill="#FFFFFF" d="M84.413,38.359l-6.976,4.026c0.67,2.43,1.062,4.974,1.062,7.614c0,2.644-0.388,5.187-1.062,7.617
	l6.976,4.026c3.406,1.97,4.575,6.324,2.604,9.734c-1.967,3.406-6.32,4.575-9.73,2.604l-6.962-4.019
	c-3.574,3.634-8.113,6.292-13.2,7.603v8.059c0,3.933-3.192,7.126-7.126,7.126s-7.126-3.192-7.126-7.126v-8.059
	c-5.088-1.311-9.63-3.969-13.2-7.603l-6.962,4.019c-3.41,1.97-7.767,0.802-9.73-2.604c-1.97-3.41-0.802-7.767,2.604-9.734
	l6.976-4.026c-0.673-2.43-1.062-4.974-1.062-7.617c0-2.64,0.385-5.184,1.062-7.614l-6.976-4.026
	c-3.406-1.97-4.575-6.324-2.604-9.734c1.967-3.406,6.32-4.575,9.73-2.604l6.962,4.019c3.57-3.634,8.113-6.292,13.2-7.603v-8.059
	c0-3.933,3.192-7.126,7.126-7.126s7.126,3.192,7.126,7.126v8.059c5.088,1.311,9.627,3.969,13.2,7.603l6.962-4.019
	c3.41-1.97,7.767-0.802,9.73,2.604C88.988,32.035,87.819,36.392,84.413,38.359z M50,35.751c-7.87,0-14.251,6.381-14.251,14.248
	c0,7.87,6.381,14.251,14.251,14.251s14.248-6.381,14.248-14.251C64.248,42.132,57.87,35.751,50,35.751z"/>
</svg>
