<?xml version="1.0" encoding="utf-8"?>
<!-- Generator: Adobe Illustrator 17.0.0, SVG Export Plug-In . SVG Version: 6.00 Build 0)  -->
<!DOCTYPE svg PUBLIC "-//W3C//DTD SVG 1.1//EN" "http://www.w3.org/Graphics/SVG/1.1/DTD/svg11.dtd">
<svg version="1.1" id="Layer_1" xmlns="http://www.w3.org/2000/svg" xmlns:xlink="http://www.w3.org/1999/xlink" x="0px" y="0px"
	 width="100px" height="100px" viewBox="0 0 100 100" enable-background="new 0 0 100 100" xml:space="preserve">
<path fill="#FFFFFF" d="M73.043,75.263v-7.84c6.622-1.711,11.523-7.705,11.523-14.861c0-8.483-6.88-15.363-15.363-15.363
	c-3.075,0-5.923,0.922-8.324,2.479c-2.364-10.212-11.472-17.844-22.402-17.844c-12.728,0-23.045,10.319-23.045,23.047
	c0,8.524,4.642,15.95,11.522,19.934v8.537C15.7,68.791,7.753,57.771,7.753,44.88c0-16.968,13.755-30.727,30.725-30.727
	c11.531,0,21.566,6.361,26.821,15.756c1.275-0.217,2.566-0.394,3.905-0.394c12.726,0,23.043,10.319,23.043,23.043
	C92.247,63.98,83.939,73.429,73.043,75.263z M36.694,64.086c1.062-1.838,3.409-2.464,5.247-1.406l4.218,2.433v-4.869
	c0-2.12,1.721-3.841,3.841-3.841s3.841,1.721,3.841,3.841v4.869l4.216-2.435c1.838-1.058,4.187-0.432,5.245,1.406
	c1.062,1.838,0.432,4.187-1.404,5.247l-4.218,2.435l4.218,2.435c1.836,1.062,2.466,3.409,1.404,5.247
	c-1.06,1.834-3.407,2.464-5.245,1.402l-4.216-2.431v4.869c0,2.122-1.721,3.841-3.841,3.841s-3.841-1.719-3.841-3.841v-4.869
	l-4.216,2.435c-1.838,1.062-4.187,0.432-5.247-1.402c-1.06-1.838-0.432-4.187,1.406-5.247l4.216-2.437l-4.216-2.435
	C36.264,68.27,35.636,65.924,36.694,64.086z M50,75.609c2.12,0,3.841-1.721,3.841-3.841c0-2.122-1.721-3.841-3.841-3.841
	s-3.841,1.719-3.841,3.841C46.159,73.886,47.88,75.609,50,75.609z"/>
</svg>
