<?xml version="1.0" encoding="utf-8"?>
<!-- Generator: Adobe Illustrator 17.0.0, SVG Export Plug-In . SVG Version: 6.00 Build 0)  -->
<!DOCTYPE svg PUBLIC "-//W3C//DTD SVG 1.1//EN" "http://www.w3.org/Graphics/SVG/1.1/DTD/svg11.dtd">
<svg version="1.1" id="Layer_1" xmlns="http://www.w3.org/2000/svg" xmlns:xlink="http://www.w3.org/1999/xlink" x="0px" y="0px"
	 width="100px" height="100px" viewBox="0 0 100 100" enable-background="new 0 0 100 100" xml:space="preserve">
<path fill="#FFFFFF" d="M77.474,72.822v-8.598c4.689-2.718,7.848-7.778,7.848-13.585c0-8.667-7.028-15.697-15.699-15.697
	c-3.14,0-6.051,0.942-8.504,2.534c-2.416-10.435-11.725-18.234-22.894-18.234c-13.006,0-23.547,10.545-23.547,23.551
	c0,6.965,3.042,13.206,7.85,17.514v9.648C13.154,64.522,6.828,54.407,6.828,42.793c0-17.341,14.058-31.4,31.398-31.4
	c11.783,0,22.038,6.5,27.408,16.101c1.303-0.222,2.624-0.402,3.99-0.402c13.006,0,23.549,10.545,23.549,23.547
	C93.173,60.89,86.612,69.584,77.474,72.822z M34.301,58.491c2.169,0,3.925,1.758,3.925,3.925c0,2.169-1.757,3.925-3.925,3.925
	c-2.167,0-3.923-1.757-3.923-3.925C30.377,60.25,32.134,58.491,34.301,58.491z M34.301,74.192c2.169,0,3.925,1.757,3.925,3.925
	c0,2.167-1.757,3.921-3.925,3.921c-2.167,0-3.923-1.757-3.923-3.921C30.377,75.947,32.134,74.192,34.301,74.192z M50.001,66.342
	c2.167,0,3.925,1.757,3.925,3.925c0,2.167-1.758,3.925-3.925,3.925c-2.169,0-3.925-1.758-3.925-3.925
	C46.076,68.096,47.833,66.342,50.001,66.342z M50.001,82.039c2.167,0,3.925,1.758,3.925,3.925c0,2.169-1.758,3.925-3.925,3.925
	c-2.169,0-3.925-1.757-3.925-3.925C46.076,83.797,47.833,82.039,50.001,82.039z M65.698,58.491c2.169,0,3.925,1.758,3.925,3.925
	c0,2.169-1.757,3.925-3.925,3.925c-2.167,0-3.923-1.757-3.923-3.925C61.775,60.25,63.534,58.491,65.698,58.491z M65.698,74.192
	c2.169,0,3.925,1.757,3.925,3.925c0,2.167-1.757,3.921-3.925,3.921c-2.167,0-3.923-1.757-3.923-3.921
	C61.775,75.947,63.534,74.192,65.698,74.192z"/>
</svg>
