<?xml version="1.0" encoding="utf-8"?>
<!-- Generator: Adobe Illustrator 17.0.0, SVG Export Plug-In . SVG Version: 6.00 Build 0)  -->
<!DOCTYPE svg PUBLIC "-//W3C//DTD SVG 1.1//EN" "http://www.w3.org/Graphics/SVG/1.1/DTD/svg11.dtd">
<svg version="1.1" id="Layer_1" xmlns="http://www.w3.org/2000/svg" xmlns:xlink="http://www.w3.org/1999/xlink" x="0px" y="0px"
	 width="100px" height="100px" viewBox="0 0 100 100" enable-background="new 0 0 100 100" xml:space="preserve">
<path fill="#FFFFFF" d="M77.522,73.861v-8.613c4.697-2.723,7.862-7.791,7.862-13.609c0-8.682-7.04-15.724-15.726-15.724
	c-3.146,0-6.061,0.944-8.519,2.538C58.719,28,49.394,20.187,38.205,20.187c-13.029,0-23.588,10.563-23.588,23.592
	c0,6.977,3.047,13.229,7.864,17.545v9.665c-9.392-5.442-15.728-15.575-15.728-27.21c0-17.372,14.083-31.454,31.452-31.454
	c11.804,0,22.076,6.511,27.455,16.129c1.305-0.222,2.629-0.403,3.997-0.403c13.029,0,23.59,10.563,23.59,23.588
	C93.248,61.908,86.676,70.617,77.522,73.861z M34.273,59.505c2.172,0,3.932,1.762,3.932,3.932c0,2.172-1.76,3.932-3.932,3.932
	c-2.17,0-3.93-1.76-3.93-3.932C30.343,61.267,32.103,59.505,34.273,59.505z M34.273,75.233c2.172,0,3.932,1.76,3.932,3.932
	c0,2.17-1.76,3.928-3.932,3.928c-2.17,0-3.93-1.76-3.93-3.928C30.343,76.991,32.103,75.233,34.273,75.233z M50.001,67.369
	c2.17,0,3.932,1.76,3.932,3.932c0,2.17-1.762,3.932-3.932,3.932c-2.172,0-3.932-1.762-3.932-3.932
	C46.069,69.127,47.829,67.369,50.001,67.369z M50.001,83.093c2.17,0,3.932,1.762,3.932,3.932c0,2.172-1.762,3.932-3.932,3.932
	c-2.172,0-3.932-1.76-3.932-3.932C46.069,84.855,47.829,83.093,50.001,83.093z M65.726,59.505c2.172,0,3.932,1.762,3.932,3.932
	c0,2.172-1.76,3.932-3.932,3.932c-2.17,0-3.93-1.76-3.93-3.932C61.796,61.267,63.557,59.505,65.726,59.505z M65.726,75.233
	c2.172,0,3.932,1.76,3.932,3.932c0,2.17-1.76,3.928-3.932,3.928c-2.17,0-3.93-1.76-3.93-3.928
	C61.796,76.991,63.557,75.233,65.726,75.233z"/>
</svg>
