<?xml version="1.0" encoding="utf-8"?>
<!-- Generator: Adobe Illustrator 17.0.0, SVG Export Plug-In . SVG Version: 6.00 Build 0)  -->
<!DOCTYPE svg PUBLIC "-//W3C//DTD SVG 1.1//EN" "http://www.w3.org/Graphics/SVG/1.1/DTD/svg11.dtd">
<svg version="1.1" id="Layer_1" xmlns="http://www.w3.org/2000/svg" xmlns:xlink="http://www.w3.org/1999/xlink" x="0px" y="0px"
	 width="100px" height="100px" viewBox="0 0 100 100" enable-background="new 0 0 100 100" xml:space="preserve">
<path fill="#FFFFFF" d="M89.991,77.193c-2.028,0-3.672-1.644-3.672-3.674c0-2.028,1.644-3.674,3.672-3.674
	c2.028,0,3.674,1.646,3.674,3.674C93.665,75.549,92.021,77.193,89.991,77.193z M73.459,64.888V56.84
	c4.389-2.541,7.348-7.276,7.348-12.712c0-8.114-6.578-14.694-14.694-14.694c-2.941,0-5.664,0.882-7.962,2.372
	c-2.261-9.767-10.973-17.066-21.427-17.066c-12.174,0-22.043,9.869-22.043,22.041c0,6.521,2.849,12.36,7.348,16.395v9.031
	C13.254,57.121,7.335,47.653,7.335,36.78c0-16.23,13.157-29.387,29.389-29.387c11.03,0,20.628,6.082,25.654,15.069
	c1.22-0.208,2.456-0.377,3.735-0.377c12.172,0,22.041,9.869,22.041,22.043C88.154,53.723,82.014,61.861,73.459,64.888z
	 M12.846,79.03c2.028,0,3.672,1.644,3.672,3.674c0,2.028-1.644,3.674-3.672,3.674s-3.674-1.646-3.674-3.674
	C9.172,80.672,10.816,79.03,12.846,79.03z M31.213,47.804c0-2.028-0.191-3.674,1.837-3.674c2.028,0,1.837,1.646,1.837,3.674v44.085
	h-3.674l0,0l0,0c0-4.058-3.288-7.348-7.346-7.348v-3.674c2.835,0,5.395,1.102,7.346,2.86V47.804z M47.744,73.519
	c-2.028,0-1.837-1.644-1.837-3.674V55.152c0-2.03-0.191-3.674,1.837-3.674s1.837,1.644,1.837,3.674v14.693
	C49.581,71.875,49.773,73.519,47.744,73.519z M47.744,80.867c2.028,0,3.674,1.644,3.674,3.674c0,2.028-1.646,3.674-3.674,3.674
	s-3.674-1.646-3.674-3.674C44.07,82.509,45.716,80.867,47.744,80.867z M62.439,44.13c2.028,0,1.837,1.646,1.837,3.674V80.9
	c3.349-4.471,8.676-7.381,14.694-7.381v3.674c-8.116,0-14.694,6.58-14.694,14.696h-3.674c0-0.502,0.037-0.994,0.075-1.482
	c-0.099-0.614-0.075-1.367-0.075-2.192V47.804C60.602,45.776,60.411,44.13,62.439,44.13z"/>
</svg>
