<?xml version="1.0" encoding="utf-8"?>
<!-- Generator: Adobe Illustrator 17.0.0, SVG Export Plug-In . SVG Version: 6.00 Build 0)  -->
<!DOCTYPE svg PUBLIC "-//W3C//DTD SVG 1.1//EN" "http://www.w3.org/Graphics/SVG/1.1/DTD/svg11.dtd">
<svg version="1.1" id="Layer_1" xmlns="http://www.w3.org/2000/svg" xmlns:xlink="http://www.w3.org/1999/xlink" x="0px" y="0px"
	 width="100px" height="100px" viewBox="0 0 100 100" enable-background="new 0 0 100 100" xml:space="preserve">
<path fill="#FFFFFF" d="M90.523,78.564c-2.055,0-3.722-1.666-3.722-3.724c0-2.055,1.666-3.724,3.722-3.724s3.724,1.668,3.724,3.724
	C94.247,76.898,92.581,78.564,90.523,78.564z M73.769,66.094v-8.157c4.448-2.575,7.447-7.375,7.447-12.884
	c0-8.224-6.667-14.893-14.893-14.893c-2.981,0-5.74,0.894-8.069,2.404c-2.292-9.899-11.121-17.296-21.716-17.296
	c-12.338,0-22.34,10.002-22.34,22.338c0,6.609,2.888,12.526,7.447,16.617v9.153C12.752,58.222,6.753,48.627,6.753,37.606
	c0-16.449,13.334-29.783,29.785-29.783c11.178,0,20.906,6.164,26,15.272c1.236-0.21,2.489-0.382,3.785-0.382
	c12.336,0,22.338,10.002,22.338,22.34C88.662,54.778,82.439,63.026,73.769,66.094z M12.338,80.426c2.055,0,3.722,1.666,3.722,3.724
	c0,2.055-1.666,3.724-3.722,3.724s-3.724-1.668-3.724-3.724C8.615,82.091,10.281,80.426,12.338,80.426z M30.953,48.779
	c0-2.055-0.194-3.724,1.862-3.724c2.055,0,1.862,1.668,1.862,3.724v44.68h-3.724l0,0l0,0c0-4.113-3.333-7.447-7.445-7.447v-3.724
	c2.873,0,5.468,1.117,7.445,2.899V48.779z M47.707,74.841c-2.055,0-1.862-1.666-1.862-3.724V56.226c0-2.057-0.194-3.724,1.862-3.724
	c2.055,0,1.862,1.666,1.862,3.724v14.891C49.569,73.175,49.763,74.841,47.707,74.841z M47.707,82.288
	c2.055,0,3.724,1.666,3.724,3.724c0,2.055-1.668,3.724-3.724,3.724c-2.055,0-3.724-1.668-3.724-3.724
	C43.984,83.953,45.652,82.288,47.707,82.288z M62.6,45.056c2.055,0,1.862,1.668,1.862,3.724v33.542
	c3.394-4.532,8.793-7.481,14.893-7.481v3.724c-8.225,0-14.893,6.669-14.893,14.894h-3.724c0-0.508,0.037-1.007,0.076-1.502
	c-0.101-0.622-0.076-1.385-0.076-2.221V48.779C60.738,46.724,60.544,45.056,62.6,45.056z"/>
</svg>
