<?xml version="1.0" encoding="utf-8"?>
<!-- Generator: Adobe Illustrator 17.0.0, SVG Export Plug-In . SVG Version: 6.00 Build 0)  -->
<!DOCTYPE svg PUBLIC "-//W3C//DTD SVG 1.1//EN" "http://www.w3.org/Graphics/SVG/1.1/DTD/svg11.dtd">
<svg version="1.1" id="Layer_1" xmlns="http://www.w3.org/2000/svg" xmlns:xlink="http://www.w3.org/1999/xlink" x="0px" y="0px"
	 width="100px" height="100px" viewBox="0 0 100 100" enable-background="new 0 0 100 100" xml:space="preserve">
<path fill="#FFFFFF" d="M89.184,64.251h-7.124c-1.967,0-3.563-1.596-3.563-3.563c0-1.968,1.596-3.563,3.563-3.563h7.124
	c1.968,0,3.563,1.594,3.563,3.563C92.747,62.655,91.154,64.251,89.184,64.251z M75.19,40.536c-1.391,1.391-3.648,1.391-5.038,0
	c-1.389-1.391-1.389-3.646,0-5.038l5.038-5.038c1.389-1.389,3.646-1.389,5.038,0c1.389,1.391,1.389,3.646,0,5.038L75.19,40.536z
	 M70.133,67.81h-7.804c1.215-2.095,1.92-4.523,1.92-7.122c0-7.87-6.379-14.251-14.249-14.251c-7.868,0-14.249,6.381-14.249,14.251
	c0,2.599,0.705,5.027,1.922,7.122h-7.804c-0.791-2.23-1.243-4.621-1.243-7.122c0-11.805,9.571-21.374,21.374-21.374
	c11.805,0,21.374,9.568,21.374,21.374C71.374,63.189,70.922,65.58,70.133,67.81z M50,32.188c-1.967,0-3.561-1.596-3.561-3.563
	v-7.124c0-1.967,1.594-3.563,3.561-3.563s3.563,1.596,3.563,3.563v7.124C53.563,30.594,51.967,32.188,50,32.188z M24.812,40.536
	l-5.038-5.038c-1.391-1.391-1.391-3.646,0-5.038c1.389-1.389,3.646-1.389,5.038,0l5.038,5.038c1.389,1.391,1.389,3.646,0,5.038
	C28.458,41.927,26.203,41.927,24.812,40.536z M21.502,60.688c0,1.967-1.596,3.563-3.561,3.563h-7.125
	c-1.967,0-3.563-1.596-3.563-3.563c0-1.968,1.596-3.563,3.563-3.563h7.125C19.906,57.125,21.502,58.72,21.502,60.688z
	 M32.188,74.935h35.623c1.967,0,3.563,1.596,3.563,3.563c0,1.968-1.596,3.563-3.563,3.563H32.188c-1.967,0-3.563-1.594-3.563-3.563
	C28.626,76.533,30.222,74.935,32.188,74.935z"/>
</svg>
