<?xml version="1.0" encoding="utf-8"?>
<!-- Generator: Adobe Illustrator 17.0.0, SVG Export Plug-In . SVG Version: 6.00 Build 0)  -->
<!DOCTYPE svg PUBLIC "-//W3C//DTD SVG 1.1//EN" "http://www.w3.org/Graphics/SVG/1.1/DTD/svg11.dtd">
<svg version="1.1" id="Layer_1" xmlns="http://www.w3.org/2000/svg" xmlns:xlink="http://www.w3.org/1999/xlink" x="0px" y="0px"
	 width="100px" height="100px" viewBox="0 0 100 100" enable-background="new 0 0 100 100" xml:space="preserve">
<path fill="#FFFFFF" d="M9.298,63.322c-0.512-1.263-0.925-2.57-1.267-3.909h84.968c0,1.337-0.137,2.635-0.354,3.909H9.298z
	 M23.148,24.234c4.484-2.484,9.636-3.907,15.125-3.907c5.485,0,10.625,1.427,15.103,3.907H23.148z M7.275,47.687
	c0.166-1.333,0.426-2.633,0.756-3.907H86.99c1.077,1.198,2.031,2.504,2.844,3.907H7.275z M9.298,39.871
	c0.549-1.355,1.198-2.656,1.923-3.909h54.108c0.078,0.133,0.164,0.264,0.24,0.401c1.298-0.223,2.615-0.401,3.974-0.401
	c4.791,0,9.243,1.443,12.953,3.909H9.298z M13.885,32.052c1.134-1.413,2.394-2.713,3.753-3.909h41.286
	c1.349,1.192,2.592,2.502,3.72,3.909H13.885z M92.643,55.504H7.275c-0.16-1.282-0.272-2.58-0.272-3.907h84.632
	C92.078,52.853,92.418,54.159,92.643,55.504z M91.635,67.232c-0.483,1.366-1.085,2.672-1.8,3.909H13.885
	c-0.987-1.229-1.871-2.539-2.664-3.909H91.635z M17.638,75.05h69.35c-1.329,1.482-2.828,2.803-4.494,3.907H23.148
	C21.162,77.859,19.329,76.534,17.638,75.05z"/>
</svg>
