<?xml version="1.0" encoding="utf-8"?>
<!-- Generator: Adobe Illustrator 17.0.0, SVG Export Plug-In . SVG Version: 6.00 Build 0)  -->
<!DOCTYPE svg PUBLIC "-//W3C//DTD SVG 1.1//EN" "http://www.w3.org/Graphics/SVG/1.1/DTD/svg11.dtd">
<svg version="1.1" id="Layer_1" xmlns="http://www.w3.org/2000/svg" xmlns:xlink="http://www.w3.org/1999/xlink" x="0px" y="0px"
	 width="100px" height="100px" viewBox="0 0 100 100" enable-background="new 0 0 100 100" xml:space="preserve">
<path fill="#FFFFFF" d="M90.941,64.89h-7.443c-2.055,0-3.722-1.668-3.722-3.722c0-2.057,1.668-3.722,3.722-3.722h7.443
	c2.057,0,3.722,1.666,3.722,3.722C94.663,63.222,92.999,64.89,90.941,64.89z M76.319,40.111c-1.454,1.454-3.812,1.454-5.263,0
	c-1.452-1.454-1.452-3.81,0-5.263l5.263-5.263c1.452-1.452,3.81-1.452,5.263,0c1.452,1.454,1.452,3.81,0,5.263L76.319,40.111z
	 M71.035,68.608h-8.154c1.269-2.189,2.006-4.726,2.006-7.441c0-8.223-6.665-14.89-14.888-14.89c-8.221,0-14.888,6.667-14.888,14.89
	c0,2.715,0.737,5.252,2.008,7.441h-8.154c-0.826-2.33-1.299-4.828-1.299-7.441c0-12.334,10-22.333,22.333-22.333
	c12.334,0,22.333,9.997,22.333,22.333C72.333,63.78,71.86,66.278,71.035,68.608z M50,31.39c-2.055,0-3.721-1.668-3.721-3.722v-7.443
	c0-2.055,1.666-3.722,3.721-3.722s3.722,1.668,3.722,3.722v7.443C53.722,29.724,52.055,31.39,50,31.39z M23.683,40.111l-5.263-5.263
	c-1.454-1.454-1.454-3.81,0-5.263c1.452-1.452,3.81-1.452,5.263,0l5.263,5.263c1.452,1.454,1.452,3.81,0,5.263
	C27.492,41.565,25.136,41.565,23.683,40.111z M20.224,61.167c0,2.055-1.668,3.722-3.721,3.722H9.059
	c-2.055,0-3.722-1.668-3.722-3.722c0-2.057,1.668-3.722,3.722-3.722h7.445C18.557,57.445,20.224,59.111,20.224,61.167z
	 M31.39,76.053h37.22c2.055,0,3.722,1.668,3.722,3.722c0,2.057-1.668,3.722-3.722,3.722H31.39c-2.055,0-3.722-1.666-3.722-3.722
	C27.667,77.723,29.335,76.053,31.39,76.053z"/>
</svg>
