<?xml version="1.0" encoding="utf-8"?>
<!-- Generator: Adobe Illustrator 17.0.0, SVG Export Plug-In . SVG Version: 6.00 Build 0)  -->
<!DOCTYPE svg PUBLIC "-//W3C//DTD SVG 1.1//EN" "http://www.w3.org/Graphics/SVG/1.1/DTD/svg11.dtd">
<svg version="1.1" id="Layer_1" xmlns="http://www.w3.org/2000/svg" xmlns:xlink="http://www.w3.org/1999/xlink" x="0px" y="0px"
	 width="100px" height="100px" viewBox="0 0 100 100" enable-background="new 0 0 100 100" xml:space="preserve">
<path fill="#FFFFFF" d="M90.024,64.556h-7.276c-2.009,0-3.639-1.63-3.639-3.639c0-2.011,1.63-3.639,3.639-3.639h7.276
	c2.011,0,3.639,1.628,3.639,3.639C93.663,62.926,92.037,64.556,90.024,64.556z M75.73,40.333c-1.421,1.421-3.726,1.421-5.146,0
	s-1.419-3.725,0-5.146l5.146-5.146c1.419-1.419,3.725-1.419,5.146,0c1.419,1.421,1.419,3.725,0,5.146L75.73,40.333z M70.564,68.192
	h-7.971c1.241-2.14,1.961-4.62,1.961-7.275c0-8.039-6.516-14.556-14.554-14.556c-8.037,0-14.554,6.518-14.554,14.556
	c0,2.655,0.721,5.135,1.963,7.275h-7.971c-0.808-2.278-1.27-4.72-1.27-7.275c0-12.058,9.776-21.833,21.833-21.833
	c12.058,0,21.833,9.773,21.833,21.833C71.833,63.472,71.37,65.914,70.564,68.192z M50,31.806c-2.009,0-3.637-1.63-3.637-3.639
	v-7.276c0-2.009,1.628-3.639,3.637-3.639s3.639,1.63,3.639,3.639v7.276C53.639,30.178,52.009,31.806,50,31.806z M24.272,40.333
	l-5.146-5.146c-1.421-1.421-1.421-3.725,0-5.146c1.419-1.419,3.725-1.419,5.146,0l5.146,5.146c1.419,1.421,1.419,3.725,0,5.146
	C27.996,41.754,25.693,41.754,24.272,40.333z M20.891,60.917c0,2.009-1.63,3.639-3.637,3.639H9.976c-2.009,0-3.639-1.63-3.639-3.639
	c0-2.011,1.63-3.639,3.639-3.639h7.278C19.261,57.278,20.891,58.907,20.891,60.917z M31.806,75.47h36.387
	c2.009,0,3.639,1.63,3.639,3.639c0,2.011-1.63,3.639-3.639,3.639H31.806c-2.009,0-3.639-1.628-3.639-3.639
	C28.167,77.102,29.798,75.47,31.806,75.47z"/>
</svg>
