<?xml version="1.0" encoding="utf-8"?>
<!-- Generator: Adobe Illustrator 17.0.0, SVG Export Plug-In . SVG Version: 6.00 Build 0)  -->
<!DOCTYPE svg PUBLIC "-//W3C//DTD SVG 1.1//EN" "http://www.w3.org/Graphics/SVG/1.1/DTD/svg11.dtd">
<svg version="1.1" id="Layer_1" xmlns="http://www.w3.org/2000/svg" xmlns:xlink="http://www.w3.org/1999/xlink" x="0px" y="0px"
	 width="100px" height="100px" viewBox="0 0 100 100" enable-background="new 0 0 100 100" xml:space="preserve">
<path fill="#FFFFFF" d="M81.428,53.928L81.428,53.928h-5.893c-2.171,0-3.929-1.758-3.929-3.927s1.758-3.929,3.929-3.929h5.893
	c2.169,0,3.929-1.76,3.929-3.927c0-2.171-1.76-3.929-3.929-3.929c-2.171,0-3.929-1.76-3.929-3.929s1.758-3.929,3.929-3.929
	c0.269,0,0.532,0.028,0.79,0.081c6.131,0.414,10.993,5.467,10.993,11.706C93.21,48.651,87.936,53.928,81.428,53.928z M61.784,46.072
	h-3.929H44.109H18.574c-2.169,0-3.927,1.76-3.927,3.929s1.758,3.927,3.927,3.927h3.929h7.855h5.893h7.857h5.893h7.853h3.929
	c6.51,0,11.786,5.278,11.786,11.786c0,6.239-4.862,11.291-10.993,11.706c-0.257,0.053-0.521,0.081-0.794,0.081
	c-2.169,0-3.929-1.76-3.929-3.929c0-2.171,1.76-3.929,3.929-3.929c2.171,0,3.929-1.76,3.929-3.929c0-2.169-1.758-3.929-3.929-3.929
	h-3.929h-7.853h-5.893h-7.857h-5.893h-7.855h-3.929c-6.508,0-11.784-5.276-11.784-11.784c0-6.237,4.862-11.289,10.993-11.706
	c0.257-0.051,0.523-0.079,0.792-0.079l0,0h25.535h13.747h3.929c2.171,0,3.929-1.76,3.929-3.929s-1.758-3.929-3.929-3.929
	c-2.169,0-3.929-1.758-3.929-3.929c0-2.169,1.76-3.929,3.929-3.929c0.273,0,0.536,0.029,0.794,0.081
	c6.131,0.414,10.993,5.467,10.993,11.706C73.57,40.794,68.294,46.072,61.784,46.072z"/>
</svg>
