<?xml version="1.0" encoding="utf-8"?>
<!-- Generator: Adobe Illustrator 17.0.0, SVG Export Plug-In . SVG Version: 6.00 Build 0)  -->
<!DOCTYPE svg PUBLIC "-//W3C//DTD SVG 1.1//EN" "http://www.w3.org/Graphics/SVG/1.1/DTD/svg11.dtd">
<svg version="1.1" id="Layer_1" xmlns="http://www.w3.org/2000/svg" xmlns:xlink="http://www.w3.org/1999/xlink" x="0px" y="0px"
	 width="100px" height="100px" viewBox="0 0 100 100" enable-background="new 0 0 100 100" xml:space="preserve">
<path fill="#FFFFFF" d="M77.999,73.246v-8.762c4.778-2.77,7.998-7.926,7.998-13.845c0-8.832-7.162-15.997-15.999-15.997
	c-3.2,0-6.166,0.96-8.666,2.582C58.87,26.59,49.383,18.641,38.001,18.641c-13.255,0-23.997,10.747-23.997,24.001
	c0,7.098,3.1,13.459,8,17.849v9.832C12.45,64.788,6.003,54.479,6.003,42.643c0-17.673,14.327-32,31.998-32
	c12.009,0,22.459,6.624,27.931,16.409c1.328-0.226,2.674-0.41,4.066-0.41c13.255,0,23.999,10.747,23.999,23.997
	C93.998,61.086,87.311,69.946,77.999,73.246z M34.001,58.641c2.21,0,4,1.792,4,4c0,2.21-1.79,4-4,4c-2.208,0-3.998-1.79-3.998-4
	C30.002,60.433,31.793,58.641,34.001,58.641z M34.001,74.642c2.21,0,4,1.79,4,4c0,2.208-1.79,3.996-4,3.996
	c-2.208,0-3.998-1.79-3.998-3.996C30.002,76.43,31.793,74.642,34.001,74.642z M50.001,66.642c2.208,0,4,1.79,4,4
	c0,2.208-1.792,4-4,4c-2.21,0-4-1.792-4-4C46.001,68.43,47.791,66.642,50.001,66.642z M50.001,82.639c2.208,0,4,1.792,4,4
	c0,2.21-1.792,4-4,4c-2.21,0-4-1.79-4-4C46.001,84.431,47.791,82.639,50.001,82.639z M65.998,58.641c2.21,0,4,1.792,4,4
	c0,2.21-1.79,4-4,4c-2.208,0-3.998-1.79-3.998-4C62,60.433,63.792,58.641,65.998,58.641z M65.998,74.642c2.21,0,4,1.79,4,4
	c0,2.208-1.79,3.996-4,3.996c-2.208,0-3.998-1.79-3.998-3.996C62,76.43,63.792,74.642,65.998,74.642z"/>
</svg>
