<?xml version="1.0" encoding="utf-8"?>
<!-- Generator: Adobe Illustrator 17.0.0, SVG Export Plug-In . SVG Version: 6.00 Build 0)  -->
<!DOCTYPE svg PUBLIC "-//W3C//DTD SVG 1.1//EN" "http://www.w3.org/Graphics/SVG/1.1/DTD/svg11.dtd">
<svg version="1.1" id="Layer_1" xmlns="http://www.w3.org/2000/svg" xmlns:xlink="http://www.w3.org/1999/xlink" x="0px" y="0px"
	 width="100px" height="100px" viewBox="0 0 100 100" enable-background="new 0 0 100 100" xml:space="preserve">
<path fill="#FFFFFF" d="M37.718,81.245c-18.006,0-32.604-14.596-32.604-32.604s14.598-32.604,32.604-32.604
	c12.236,0,22.885,6.75,28.461,16.718c1.353-0.231,2.726-0.418,4.143-0.418c13.506,0,24.454,10.951,24.454,24.456
	c0,13.501-10.948,24.452-24.454,24.452C64.666,81.245,44.235,81.245,37.718,81.245z M70.322,73.093c9.004,0,16.304-7.3,16.304-16.3
	c0-9.004-7.3-16.304-16.304-16.304c-3.261,0-6.281,0.981-8.83,2.631c-2.51-10.834-12.176-18.933-23.774-18.933
	c-13.504,0-24.452,10.948-24.452,24.454c0,13.504,10.948,24.452,24.452,24.452C45.089,73.093,64.168,73.093,70.322,73.093z"/>
</svg>
