<?xml version="1.0" encoding="utf-8"?>
<!-- Generator: Adobe Illustrator 17.0.0, SVG Export Plug-In . SVG Version: 6.00 Build 0)  -->
<!DOCTYPE svg PUBLIC "-//W3C//DTD SVG 1.1//EN" "http://www.w3.org/Graphics/SVG/1.1/DTD/svg11.dtd">
<svg version="1.1" id="Layer_1" xmlns="http://www.w3.org/2000/svg" xmlns:xlink="http://www.w3.org/1999/xlink" x="0px" y="0px"
	 width="100px" height="100px" viewBox="0 0 100 100" enable-background="new 0 0 100 100" xml:space="preserve">
<path fill="#FFFFFF" d="M88.191,52.347L88.191,52.347c2.673,3.808,4.257,8.437,4.257,13.449c0,12.945-10.495,23.443-23.443,23.443
	c-5.422,0-25.012,0-31.259,0c-17.265,0-31.259-13.994-31.259-31.259s13.994-31.259,31.259-31.259c3.912,0,7.648,0.733,11.099,2.046
	l0,0c3.195-9.148,11.876-15.723,22.114-15.723c1.475,0,2.914,0.152,4.313,0.415c-0.256,1.124-0.405,2.292-0.405,3.493
	c0,8.632,6.997,15.63,15.627,15.63c1.204,0,2.37-0.149,3.495-0.406c0.259,1.401,0.412,2.839,0.412,4.314
	C94.401,42.61,92.034,48.171,88.191,52.347z M14.301,57.98c0,12.948,10.495,23.443,23.443,23.443c7.066,0,25.36,0,31.259,0
	c8.632,0,15.63-6.999,15.63-15.627c0-8.632-6.997-15.632-15.63-15.632c-3.126,0-6.024,0.942-8.468,2.523
	C58.129,42.3,48.864,34.535,37.744,34.535C24.796,34.534,14.301,45.031,14.301,57.98z M52.499,30.437c0.002,0,0.004,0,0.004,0
	S52.5,30.437,52.499,30.437z M67.464,21.264c-5.667,1.297-10.112,5.686-11.577,11.284l0,0c3.747,2.681,6.883,6.159,9.145,10.2
	c1.297-0.22,2.613-0.401,3.972-0.401c5.115,0,9.834,1.661,13.688,4.438l0,0c1.676-1.913,2.902-4.236,3.49-6.804
	C76.698,38.213,69.23,30.751,67.464,21.264z"/>
</svg>
