<?xml version="1.0" encoding="utf-8"?>
<!-- Generator: Adobe Illustrator 17.0.0, SVG Export Plug-In . SVG Version: 6.00 Build 0)  -->
<!DOCTYPE svg PUBLIC "-//W3C//DTD SVG 1.1//EN" "http://www.w3.org/Graphics/SVG/1.1/DTD/svg11.dtd">
<svg version="1.1" id="Layer_1" xmlns="http://www.w3.org/2000/svg" xmlns:xlink="http://www.w3.org/1999/xlink" x="0px" y="0px"
	 width="100px" height="100px" viewBox="0 0 100 100" enable-background="new 0 0 100 100" xml:space="preserve">
<path fill="#FFFFFF" d="M90.885,52.915h-6.549c-1.808,0-3.275-1.466-3.275-3.275c0-1.808,1.467-3.271,3.275-3.271h6.549
	c1.808,0,3.275,1.466,3.275,3.271C94.16,51.45,92.693,52.915,90.885,52.915z M78.019,31.118c-1.279,1.279-3.352,1.279-4.63,0
	c-1.279-1.277-1.279-3.352,0-4.629l4.63-4.63c1.279-1.279,3.352-1.279,4.63,0c1.279,1.277,1.279,3.352,0,4.63L78.019,31.118z
	 M73.194,56.673L73.194,56.673c2.864,3.416,4.594,7.811,4.594,12.616c0,10.848-8.796,19.646-19.648,19.646
	c-4.544,0-20.961,0-26.195,0C17.479,88.936,5.75,77.208,5.75,62.74s11.729-26.195,26.195-26.195c2.574,0,5.059,0.38,7.406,1.071
	c3.594-4.629,9.199-7.62,15.515-7.62c10.851,0,19.648,8.798,19.648,19.646C74.512,52.121,74.033,54.489,73.194,56.673z
	 M12.298,62.74c0,10.851,8.795,19.646,19.646,19.646c5.921,0,21.252,0,26.195,0c7.234,0,13.098-5.866,13.098-13.096
	c0-7.234-5.864-13.099-13.098-13.099c-2.62,0-5.049,0.789-7.095,2.114c-2.015-8.705-9.782-15.21-19.101-15.21
	C21.092,43.094,12.298,51.889,12.298,62.74z M54.864,36.544c-3.622,0-6.901,1.47-9.271,3.847c3.831,2.351,7.016,5.654,9.217,9.585
	c1.087-0.185,2.189-0.336,3.329-0.336c3.479,0,6.744,0.916,9.579,2.5l0,0c0.157-0.809,0.246-1.644,0.246-2.5
	C67.964,42.409,62.099,36.544,54.864,36.544z M54.864,23.445c-1.808,0-3.273-1.466-3.273-3.273v-6.548
	c0-1.81,1.467-3.275,3.273-3.275c1.81,0,3.275,1.466,3.275,3.275v6.548C58.14,21.981,56.676,23.445,54.864,23.445z M31.711,31.118
	l-4.629-4.629c-1.279-1.279-1.279-3.354,0-4.63c1.277-1.279,3.352-1.279,4.629,0l4.63,4.63c1.279,1.277,1.279,3.352,0,4.629
	C35.065,32.397,32.99,32.397,31.711,31.118z"/>
</svg>
