<?xml version="1.0" encoding="utf-8"?>
<!-- Generator: Adobe Illustrator 17.0.0, SVG Export Plug-In . SVG Version: 6.00 Build 0)  -->
<!DOCTYPE svg PUBLIC "-//W3C//DTD SVG 1.1//EN" "http://www.w3.org/Graphics/SVG/1.1/DTD/svg11.dtd">
<svg version="1.1" id="Layer_1" xmlns="http://www.w3.org/2000/svg" xmlns:xlink="http://www.w3.org/1999/xlink" x="0px" y="0px"
	 width="100px" height="100px" viewBox="0 0 100 100" enable-background="new 0 0 100 100" xml:space="preserve">
<path fill="#FFFFFF" d="M89.298,51.382L89.298,51.382c2.751,3.92,4.383,8.685,4.383,13.843c0,13.325-10.802,24.131-24.131,24.131
	c-5.581,0-25.746,0-32.176,0c-17.771,0-32.176-14.405-32.176-32.176s14.405-32.176,32.176-32.176c4.027,0,7.872,0.754,11.424,2.106
	l0,0c3.288-9.417,12.224-16.184,22.763-16.184c1.518,0,2.999,0.157,4.439,0.426c-0.263,1.156-0.416,2.359-0.416,3.596
	c0,8.886,7.202,16.088,16.086,16.088c1.239,0,2.44-0.153,3.598-0.418c0.268,1.442,0.424,2.922,0.424,4.441
	C95.69,41.36,93.254,47.084,89.298,51.382z M13.241,57.18c0,13.329,10.802,24.131,24.131,24.131c7.273,0,26.104,0,32.176,0
	c8.886,0,16.088-7.204,16.088-16.086c0-8.886-7.202-16.09-16.088-16.09c-3.218,0-6.201,0.969-8.717,2.597
	C58.355,41.04,48.818,33.047,37.372,33.047C24.043,33.047,13.241,43.852,13.241,57.18z M52.559,28.83c0.002,0,0.004,0,0.004,0
	S52.561,28.83,52.559,28.83z M67.963,19.387c-5.833,1.335-10.408,5.853-11.917,11.615l0,0c3.858,2.759,7.086,6.339,9.413,10.499
	c1.335-0.227,2.689-0.412,4.089-0.412c5.265,0,10.123,1.71,14.089,4.568l0,0c1.726-1.969,2.987-4.36,3.592-7.003
	C77.468,36.835,69.781,29.154,67.963,19.387z"/>
</svg>
