<?xml version="1.0" encoding="utf-8"?>
<!-- Generator: Adobe Illustrator 17.0.0, SVG Export Plug-In . SVG Version: 6.00 Build 0)  -->
<!DOCTYPE svg PUBLIC "-//W3C//DTD SVG 1.1//EN" "http://www.w3.org/Graphics/SVG/1.1/DTD/svg11.dtd">
<svg version="1.1" id="Layer_1" xmlns="http://www.w3.org/2000/svg" xmlns:xlink="http://www.w3.org/1999/xlink" x="0px" y="0px"
	 width="100px" height="100px" viewBox="0 0 100 100" enable-background="new 0 0 100 100" xml:space="preserve">
<path fill="#FFFFFF" d="M70.679,71.185c-0.579,0-1.342,0-2.197,0l7.415-9.125c6.579-2.186,11.328-8.383,11.328-15.694
	c0-9.138-7.407-16.542-16.544-16.542c-3.311,0-6.377,0.993-8.962,2.668c-2.548-10.995-12.356-19.214-24.126-19.214
	c-13.704,0-24.815,11.111-24.815,24.819c0,11.264,7.512,20.761,17.795,23.793l-2.79,7.812C14.298,65.522,4.505,52.953,4.505,38.094
	c0-18.273,14.815-33.09,33.088-33.09c12.418,0,23.225,6.85,28.884,16.968c1.373-0.236,2.765-0.424,4.205-0.424
	c13.706,0,24.817,11.109,24.817,24.815S84.386,71.185,70.679,71.185z M45.864,42.229h20.679L54.135,62.912h14.476L41.727,96
	l7.446-24.815H35.523L45.864,42.229z"/>
</svg>
