<?xml version="1.0" encoding="utf-8"?>
<!-- Generator: Adobe Illustrator 17.0.0, SVG Export Plug-In . SVG Version: 6.00 Build 0)  -->
<!DOCTYPE svg PUBLIC "-//W3C//DTD SVG 1.1//EN" "http://www.w3.org/Graphics/SVG/1.1/DTD/svg11.dtd">
<svg version="1.1" id="Layer_1" xmlns="http://www.w3.org/2000/svg" xmlns:xlink="http://www.w3.org/1999/xlink" x="0px" y="0px"
	 width="100px" height="100px" viewBox="0 0 100 100" enable-background="new 0 0 100 100" xml:space="preserve">
<path fill="#FFFFFF" d="M92.302,53.054h-6.778c-1.87,0-3.389-1.516-3.389-3.389c0-1.87,1.518-3.386,3.389-3.386h6.778
	c1.87,0,3.389,1.516,3.389,3.386C95.691,51.538,94.173,53.054,92.302,53.054z M78.988,30.496c-1.324,1.324-3.469,1.324-4.793,0
	c-1.324-1.322-1.324-3.469,0-4.791l4.793-4.793c1.324-1.324,3.469-1.324,4.793,0c1.324,1.322,1.324,3.469,0,4.793L78.988,30.496z
	 M73.994,56.943L73.994,56.943c2.964,3.535,4.755,8.083,4.755,13.057c0,11.227-9.103,20.331-20.333,20.331
	c-4.703,0-21.692,0-27.11,0c-14.971,0-27.11-12.136-27.11-27.11s12.138-27.11,27.11-27.11c2.664,0,5.236,0.394,7.664,1.108
	c3.719-4.791,9.52-7.886,16.056-7.886c11.23,0,20.333,9.105,20.333,20.331C75.358,52.232,74.862,54.683,73.994,56.943z
	 M10.974,63.221c0,11.23,9.102,20.331,20.331,20.331c6.127,0,21.994,0,27.11,0c7.487,0,13.555-6.07,13.555-13.553
	c0-7.487-6.068-13.556-13.555-13.556c-2.711,0-5.225,0.817-7.343,2.188c-2.086-9.008-10.123-15.741-19.767-15.741
	C20.076,42.89,10.974,51.992,10.974,63.221z M55.026,36.112c-3.749,0-7.142,1.521-9.595,3.981c3.965,2.434,7.261,5.851,9.539,9.919
	c1.126-0.191,2.266-0.347,3.445-0.347c3.601,0,6.98,0.947,9.913,2.588l0,0c0.163-0.838,0.255-1.702,0.255-2.588
	C68.581,42.182,62.512,36.112,55.026,36.112z M55.026,22.556c-1.87,0-3.388-1.516-3.388-3.388v-6.776
	c0-1.872,1.518-3.389,3.388-3.389c1.872,0,3.389,1.516,3.389,3.389v6.776C58.414,21.041,56.9,22.556,55.026,22.556z M31.065,30.496
	l-4.791-4.791c-1.324-1.324-1.324-3.471,0-4.793c1.322-1.324,3.469-1.324,4.791,0l4.793,4.793c1.324,1.322,1.324,3.469,0,4.791
	C34.536,31.82,32.388,31.82,31.065,30.496z"/>
</svg>
