<?xml version="1.0" encoding="utf-8"?>
<!-- Generator: Adobe Illustrator 17.0.0, SVG Export Plug-In . SVG Version: 6.00 Build 0)  -->
<!DOCTYPE svg PUBLIC "-//W3C//DTD SVG 1.1//EN" "http://www.w3.org/Graphics/SVG/1.1/DTD/svg11.dtd">
<svg version="1.1" id="Layer_1" xmlns="http://www.w3.org/2000/svg" xmlns:xlink="http://www.w3.org/1999/xlink" x="0px" y="0px"
	 width="100px" height="100px" viewBox="0 0 100 100" enable-background="new 0 0 100 100" xml:space="preserve">
<path fill="#FFFFFF" d="M50.001,95.665c-25.222,0-45.667-20.445-45.667-45.663c0-25.222,20.445-45.667,45.667-45.667
	c2.873,0,5.675,0.297,8.4,0.807c-0.502,2.192-0.792,4.464-0.792,6.805c0,16.814,13.633,30.443,30.447,30.443
	c2.341,0,4.613-0.289,6.805-0.792c0.506,2.729,0.803,5.526,0.803,8.403C95.665,75.219,75.219,95.665,50.001,95.665z M43.196,20.346
	C29.663,23.44,19.558,35.528,19.558,50.001c0,16.811,13.629,30.443,30.443,30.443c14.47,0,26.558-10.105,29.652-23.638
	C61.179,53.366,46.633,38.82,43.196,20.346z"/>
</svg>
