<?xml version="1.0" encoding="utf-8"?>
<!-- Generator: Adobe Illustrator 17.0.0, SVG Export Plug-In . SVG Version: 6.00 Build 0)  -->
<!DOCTYPE svg PUBLIC "-//W3C//DTD SVG 1.1//EN" "http://www.w3.org/Graphics/SVG/1.1/DTD/svg11.dtd">
<svg version="1.1" id="Layer_1" xmlns="http://www.w3.org/2000/svg" xmlns:xlink="http://www.w3.org/1999/xlink" x="0px" y="0px"
	 width="100px" height="100px" viewBox="0 0 100 100" enable-background="new 0 0 100 100" xml:space="preserve">
<path fill="#FFFFFF" d="M94.08,54.915h-7.83c-2.164,0-3.917-1.753-3.917-3.915s1.753-3.917,3.917-3.917h7.83
	c2.164,0,3.917,1.755,3.917,3.917S96.246,54.915,94.08,54.915z M78.696,28.846c-1.53,1.53-4.013,1.53-5.539,0
	c-1.53-1.53-1.53-4.009,0-5.539l5.539-5.539c1.526-1.53,4.009-1.53,5.539,0c1.526,1.53,1.526,4.009,0,5.539L78.696,28.846z
	 M51.002,74.498c-12.979,0-23.501-10.521-23.501-23.498c0-12.979,10.521-23.499,23.501-23.499c12.979,0,23.498,10.521,23.498,23.499
	C74.499,63.977,63.981,74.498,51.002,74.498z M51.002,35.334c-8.652,0-15.668,7.013-15.668,15.666
	c0,8.65,7.017,15.666,15.668,15.666S66.666,59.65,66.666,51C66.666,42.348,59.654,35.334,51.002,35.334z M51.002,19.669
	c-2.164,0-3.917-1.755-3.917-3.917V7.92c0-2.162,1.753-3.917,3.917-3.917c2.162,0,3.917,1.755,3.917,3.917v7.832
	C54.919,17.914,53.162,19.669,51.002,19.669z M23.307,28.846l-5.539-5.539c-1.53-1.53-1.53-4.009,0-5.539s4.009-1.53,5.539,0
	l5.539,5.539c1.53,1.53,1.53,4.009,0,5.539S24.837,30.376,23.307,28.846z M19.669,51c0,2.162-1.755,3.915-3.917,3.915H7.918
	c-2.162,0-3.915-1.753-3.915-3.915s1.755-3.917,3.915-3.917h7.834C17.916,47.083,19.669,48.838,19.669,51z M23.307,73.154
	c1.53-1.528,4.009-1.528,5.539,0c1.53,1.53,1.53,4.011,0,5.539l-5.539,5.539c-1.53,1.53-4.009,1.53-5.539,0
	c-1.53-1.528-1.53-4.009,0-5.539L23.307,73.154z M51.002,82.331c2.162,0,3.917,1.753,3.917,3.915v7.834
	c0,2.162-1.755,3.917-3.917,3.917c-2.164,0-3.917-1.755-3.917-3.917v-7.834C47.085,84.084,48.838,82.331,51.002,82.331z
	 M78.696,73.154l5.539,5.539c1.526,1.53,1.526,4.011,0,5.539c-1.53,1.53-4.013,1.53-5.539,0l-5.539-5.539
	c-1.53-1.528-1.53-4.009,0-5.539C74.684,71.624,77.165,71.624,78.696,73.154z"/>
</svg>
