<?xml version="1.0" encoding="utf-8"?>
<!-- Generator: Adobe Illustrator 17.0.0, SVG Export Plug-In . SVG Version: 6.00 Build 0)  -->
<!DOCTYPE svg PUBLIC "-//W3C//DTD SVG 1.1//EN" "http://www.w3.org/Graphics/SVG/1.1/DTD/svg11.dtd">
<svg version="1.1" id="Layer_1" xmlns="http://www.w3.org/2000/svg" xmlns:xlink="http://www.w3.org/1999/xlink" x="0px" y="0px"
	 width="100px" height="100px" viewBox="0 0 100 100" enable-background="new 0 0 100 100" xml:space="preserve">
<path fill="#FFFFFF" d="M85.235,45.058L85.235,45.058c1.109,1.582,1.981,3.333,2.641,5.185h0.034l0,0h-7.888l0,0l0,0
	c-2.488-4.295-7.124-7.19-12.444-7.19c-2.877,0-5.541,0.863-7.791,2.319c-2.213-9.558-10.741-16.703-20.973-16.703
	c-11.913,0-21.572,9.659-21.572,21.574l0,0h-7.192l0,0c0-15.885,12.879-28.764,28.764-28.764c3.601,0,7.037,0.676,10.212,1.884l0,0
	c2.94-8.42,10.93-14.468,20.349-14.468c1.359,0,2.683,0.14,3.97,0.379c-0.237,1.036-0.374,2.109-0.374,3.217
	c0,7.943,6.44,14.38,14.382,14.38c1.108,0,2.179-0.137,3.215-0.372c0.241,1.289,0.381,2.611,0.381,3.968
	C90.95,36.102,88.771,41.215,85.235,45.058z M66.164,16.459c-5.214,1.192-9.305,5.232-10.651,10.382l0,0
	c3.445,2.467,6.331,5.669,8.411,9.389c1.194-0.205,2.406-0.369,3.655-0.369c4.709,0,9.049,1.525,12.597,4.083l0,0
	c1.543-1.762,2.67-3.9,3.209-6.261C74.659,32.057,67.787,25.186,66.164,16.459z M13.647,57.433h71.912
	c1.985,0,3.594,1.611,3.594,3.596c0,1.985-1.611,3.596-3.594,3.596H13.647c-1.985,0-3.596-1.611-3.596-3.596
	C10.051,59.044,11.662,57.433,13.647,57.433z M13.647,71.817h71.912c1.985,0,3.594,1.609,3.594,3.594
	c0,1.985-1.611,3.596-3.594,3.596H13.647c-1.985,0-3.596-1.611-3.596-3.596S11.662,71.817,13.647,71.817z M13.647,86.197h71.912
	c1.985,0,3.594,1.611,3.594,3.596s-1.611,3.596-3.594,3.596H13.647c-1.985,0-3.596-1.611-3.596-3.596S11.662,86.197,13.647,86.197z"
	/>
</svg>
