<?xml version="1.0" encoding="utf-8"?>
<!-- Generator: Adobe Illustrator 17.0.0, SVG Export Plug-In . SVG Version: 6.00 Build 0)  -->
<!DOCTYPE svg PUBLIC "-//W3C//DTD SVG 1.1//EN" "http://www.w3.org/Graphics/SVG/1.1/DTD/svg11.dtd">
<svg version="1.1" id="Layer_1" xmlns="http://www.w3.org/2000/svg" xmlns:xlink="http://www.w3.org/1999/xlink" x="0px" y="0px"
	 width="100px" height="100px" viewBox="0 0 100 100" enable-background="new 0 0 100 100" xml:space="preserve">
<path fill="#FFFFFF" d="M87.445,47.646h-5.991c-1.654,0-2.996-1.341-2.996-2.996c0-1.654,1.342-2.996,2.996-2.996h5.991
	c1.654,0,2.996,1.342,2.996,2.996C90.441,46.306,89.1,47.646,87.445,47.646z M75.677,27.704c-1.17,1.17-3.066,1.17-4.236,0
	c-1.17-1.17-1.17-3.066,0-4.236l4.236-4.236c1.17-1.17,3.066-1.17,4.236,0c1.168,1.17,1.168,3.066,0,4.236L75.677,27.704z
	 M71.26,51.084L71.26,51.084c1.366,1.63,2.442,3.505,3.165,5.55h-6.572c-2.073-3.579-5.934-5.992-10.366-5.992
	c-2.398,0-4.618,0.719-6.492,1.934c-1.844-7.963-8.948-13.918-17.473-13.918c-9.927,0-17.975,8.049-17.975,17.976H9.557
	c0-13.236,10.729-23.967,23.965-23.967c2.355,0,4.627,0.348,6.776,0.981c3.288-4.236,8.416-6.972,14.194-6.972
	c9.927,0,17.975,8.046,17.975,17.973C72.468,46.921,72.029,49.082,71.26,51.084z M54.493,32.669c-3.314,0-6.314,1.345-8.482,3.522
	c3.505,2.15,6.419,5.173,8.432,8.768c0.995-0.169,2.003-0.307,3.045-0.307c3.183,0,6.169,0.837,8.763,2.287l0,0
	c0.144-0.74,0.223-1.504,0.223-2.287C66.476,38.033,61.111,32.669,54.493,32.669z M54.493,20.686c-1.654,0-2.996-1.341-2.996-2.996
	v-5.991c0-1.654,1.342-2.996,2.996-2.996c1.654,0,2.996,1.342,2.996,2.996v5.991C57.489,19.345,56.148,20.686,54.493,20.686z
	 M33.31,27.704l-4.235-4.236c-1.17-1.17-1.17-3.066,0-4.236c1.168-1.17,3.066-1.17,4.235,0l4.236,4.236
	c1.17,1.17,1.17,3.066,0,4.236C36.378,28.874,34.481,28.874,33.31,27.704z M12.555,62.624h59.913c1.654,0,2.995,1.342,2.995,2.996
	c0,1.655-1.342,2.996-2.995,2.996H12.555c-1.654,0-2.996-1.341-2.996-2.996C9.559,63.967,10.899,62.624,12.555,62.624z
	 M12.555,74.609h59.913c1.654,0,2.995,1.341,2.995,2.996c0,1.654-1.342,2.996-2.995,2.996H12.555c-1.654,0-2.996-1.342-2.996-2.996
	C9.559,75.948,10.899,74.609,12.555,74.609z M12.555,86.59h59.913c1.654,0,2.995,1.342,2.995,2.996c0,1.655-1.342,2.996-2.995,2.996
	H12.555c-1.654,0-2.996-1.341-2.996-2.996C9.559,87.932,10.899,86.59,12.555,86.59z"/>
</svg>
