<?xml version="1.0" encoding="utf-8"?>
<!-- Generator: Adobe Illustrator 17.0.0, SVG Export Plug-In . SVG Version: 6.00 Build 0)  -->
<!DOCTYPE svg PUBLIC "-//W3C//DTD SVG 1.1//EN" "http://www.w3.org/Graphics/SVG/1.1/DTD/svg11.dtd">
<svg version="1.1" id="Layer_1" xmlns="http://www.w3.org/2000/svg" xmlns:xlink="http://www.w3.org/1999/xlink" x="0px" y="0px"
	 width="100px" height="100px" viewBox="0 0 100 100" enable-background="new 0 0 100 100" xml:space="preserve">
<path fill="#FFFFFF" d="M69.202,69.846c-0.538,0-1.246,0-2.04,0l6.885-8.473c6.109-2.03,10.519-7.784,10.519-14.573
	c0-8.485-6.877-15.36-15.362-15.36c-3.075,0-5.921,0.922-8.322,2.477c-2.366-10.21-11.473-17.842-22.403-17.842
	c-12.725,0-23.043,10.317-23.043,23.046c0,10.459,6.975,19.278,16.524,22.094l-2.591,7.254C16.848,64.588,7.754,52.917,7.754,39.12
	c0-16.968,13.757-30.727,30.725-30.727c11.531,0,21.566,6.361,26.82,15.756c1.275-0.219,2.568-0.394,3.904-0.394
	c12.727,0,23.045,10.315,23.045,23.043S81.929,69.846,69.202,69.846z M46.159,42.959h19.202L53.84,62.164h13.442L42.318,92.889
	l6.914-23.043H36.557L46.159,42.959z"/>
</svg>
