<?xml version="1.0" encoding="utf-8"?>
<!-- Generator: Adobe Illustrator 17.0.0, SVG Export Plug-In . SVG Version: 6.00 Build 0)  -->
<!DOCTYPE svg PUBLIC "-//W3C//DTD SVG 1.1//EN" "http://www.w3.org/Graphics/SVG/1.1/DTD/svg11.dtd">
<svg version="1.1" id="Layer_1" xmlns="http://www.w3.org/2000/svg" xmlns:xlink="http://www.w3.org/1999/xlink" x="0px" y="0px"
	 width="100px" height="100px" viewBox="0 0 100 100" enable-background="new 0 0 100 100" xml:space="preserve">
<path fill="#FFFFFF" d="M89.649,53.603h-7.206c-1.992,0-3.605-1.613-3.605-3.603s1.613-3.605,3.605-3.605h7.206
	c1.992,0,3.605,1.615,3.605,3.605S91.643,53.603,89.649,53.603z M75.491,29.61c-1.408,1.408-3.693,1.408-5.097,0
	c-1.408-1.408-1.408-3.69,0-5.097l5.097-5.097c1.404-1.408,3.69-1.408,5.097,0c1.404,1.408,1.404,3.69,0,5.097L75.491,29.61z
	 M50.002,71.626c-11.945,0-21.63-9.683-21.63-21.626c0-11.945,9.683-21.628,21.63-21.628c11.945,0,21.626,9.683,21.626,21.628
	C71.628,61.943,61.947,71.626,50.002,71.626z M50.002,35.582c-7.963,0-14.42,6.455-14.42,14.418c0,7.962,6.458,14.418,14.42,14.418
	S64.418,57.962,64.418,50C64.418,42.037,57.965,35.582,50.002,35.582z M50.002,21.164c-1.992,0-3.605-1.615-3.605-3.605v-7.208
	c0-1.99,1.613-3.605,3.605-3.605c1.99,0,3.605,1.615,3.605,3.605v7.208C53.607,19.549,51.99,21.164,50.002,21.164z M24.513,29.61
	l-5.097-5.097c-1.408-1.408-1.408-3.69,0-5.097c1.408-1.408,3.69-1.408,5.097,0l5.097,5.097c1.408,1.408,1.408,3.69,0,5.097
	S25.921,31.018,24.513,29.61z M21.164,50c0,1.99-1.615,3.603-3.605,3.603h-7.21c-1.99,0-3.603-1.613-3.603-3.603
	s1.615-3.605,3.603-3.605h7.21C19.551,46.395,21.164,48.01,21.164,50z M24.513,70.39c1.408-1.406,3.69-1.406,5.097,0
	c1.408,1.408,1.408,3.691,0,5.097l-5.097,5.097c-1.408,1.408-3.69,1.408-5.097,0c-1.408-1.406-1.408-3.69,0-5.097L24.513,70.39z
	 M50.002,78.836c1.99,0,3.605,1.613,3.605,3.603v7.21c0,1.99-1.615,3.605-3.605,3.605c-1.992,0-3.605-1.615-3.605-3.605v-7.21
	C46.397,80.449,48.01,78.836,50.002,78.836z M75.491,70.39l5.097,5.097c1.404,1.408,1.404,3.691,0,5.097
	c-1.408,1.408-3.693,1.408-5.097,0l-5.097-5.097c-1.408-1.406-1.408-3.69,0-5.097C71.798,68.982,74.081,68.982,75.491,70.39z"/>
</svg>
