<?xml version="1.0" encoding="utf-8"?>
<!-- Generator: Adobe Illustrator 17.0.0, SVG Export Plug-In . SVG Version: 6.00 Build 0)  -->
<!DOCTYPE svg PUBLIC "-//W3C//DTD SVG 1.1//EN" "http://www.w3.org/Graphics/SVG/1.1/DTD/svg11.dtd">
<svg version="1.1" id="Layer_1" xmlns="http://www.w3.org/2000/svg" xmlns:xlink="http://www.w3.org/1999/xlink" x="0px" y="0px"
	 width="100px" height="100px" viewBox="0 0 100 100" enable-background="new 0 0 100 100" xml:space="preserve">
<path fill="#FFFFFF" d="M86.829,43.908h-5.732c-1.582,0-2.867-1.283-2.867-2.867c0-1.582,1.284-2.867,2.867-2.867h5.732
	c1.582,0,2.867,1.284,2.867,2.867C89.696,42.627,88.413,43.908,86.829,43.908z M75.568,24.827c-1.119,1.119-2.934,1.119-4.054,0
	c-1.119-1.119-1.119-2.934,0-4.054l4.054-4.054c1.119-1.119,2.934-1.119,4.054,0c1.118,1.119,1.118,2.934,0,4.054L75.568,24.827z
	 M71.343,47.198L71.343,47.198c1.924,2.293,3.255,5.096,3.774,8.176h-0.011c0.156,0.935,0.258,1.889,0.258,2.867
	c0,9.499-7.7,17.201-17.198,17.201c-0.401,0-0.93,0-1.522,0l5.137-6.324c4.56-1.515,7.852-5.81,7.852-10.877
	c0-0.99-0.14-1.948-0.377-2.867l0,0c-1.274-4.942-5.749-8.599-11.089-8.599c-2.295,0-4.419,0.688-6.212,1.85
	c-1.764-7.62-8.562-13.318-16.719-13.318c-9.499,0-17.199,7.702-17.199,17.201c0,0.978,0.1,1.932,0.259,2.865h-0.02
	c1.095,6.52,5.86,11.787,12.095,13.626l-1.935,5.414c-8.461-2.623-14.807-10.019-15.933-19.04l0,0
	c-0.118-0.942-0.198-1.893-0.198-2.865c0-12.665,10.266-22.933,22.931-22.933c2.253,0,4.428,0.333,6.483,0.939
	c3.146-4.054,8.053-6.671,13.581-6.671c9.499,0,17.199,7.699,17.199,17.198C72.498,43.214,72.078,45.283,71.343,47.198z
	 M55.299,29.577c-3.171,0-6.042,1.287-8.116,3.37c3.354,2.057,6.142,4.947,8.069,8.39c0.952-0.162,1.916-0.294,2.914-0.294
	c3.046,0,5.903,0.801,8.385,2.189l0,0c0.138-0.708,0.214-1.439,0.214-2.189C66.764,34.71,61.631,29.577,55.299,29.577z
	 M55.299,18.112c-1.582,0-2.867-1.284-2.867-2.867V9.513c0-1.582,1.284-2.867,2.867-2.867c1.582,0,2.867,1.284,2.867,2.867v5.732
	C58.165,16.827,56.883,18.112,55.299,18.112z M35.029,24.827l-4.052-4.054c-1.119-1.119-1.119-2.934,0-4.054
	c1.118-1.119,2.934-1.119,4.052,0l4.054,4.054c1.119,1.119,1.119,2.934,0,4.054C37.965,25.947,36.15,25.947,35.029,24.827z
	 M40.966,55.374h14.332L46.7,69.708h10.032L38.101,92.639l5.16-17.198h-9.46L40.966,55.374z"/>
</svg>
