<?xml version="1.0" encoding="utf-8"?>
<!-- Generator: Adobe Illustrator 17.0.0, SVG Export Plug-In . SVG Version: 6.00 Build 0)  -->
<!DOCTYPE svg PUBLIC "-//W3C//DTD SVG 1.1//EN" "http://www.w3.org/Graphics/SVG/1.1/DTD/svg11.dtd">
<svg version="1.1" id="Layer_1" xmlns="http://www.w3.org/2000/svg" xmlns:xlink="http://www.w3.org/1999/xlink" x="0px" y="0px"
	 width="100px" height="100px" viewBox="0 0 100 100" enable-background="new 0 0 100 100" xml:space="preserve">
<path fill="#FFFFFF" d="M86.38,43.646h-5.73c-1.582,0-2.866-1.282-2.866-2.866c0-1.582,1.284-2.866,2.866-2.866h5.73
	c1.582,0,2.866,1.284,2.866,2.866C89.246,42.365,87.964,43.646,86.38,43.646z M75.123,24.571c-1.119,1.119-2.933,1.119-4.052,0
	s-1.119-2.933,0-4.052l4.052-4.052c1.119-1.119,2.933-1.119,4.052,0c1.118,1.119,1.118,2.933,0,4.052L75.123,24.571z M70.899,46.935
	L70.899,46.935c1.923,2.293,3.254,5.094,3.773,8.173H74.66c0.156,0.934,0.258,1.889,0.258,2.866c0,9.496-7.698,17.195-17.192,17.195
	c-0.401,0-0.93,0-1.522,0l5.136-6.322c4.558-1.515,7.85-5.808,7.85-10.873c0-0.99-0.14-1.947-0.377-2.866l0,0
	c-1.274-4.941-5.747-8.596-11.085-8.596c-2.294,0-4.418,0.688-6.21,1.85c-1.764-7.617-8.559-13.313-16.714-13.313
	c-9.496,0-17.194,7.699-17.194,17.195c0,0.977,0.1,1.932,0.259,2.864h-0.02c1.095,6.518,5.858,11.783,12.091,13.621l-1.934,5.412
	c-8.459-2.622-14.802-10.016-15.928-19.034l0,0c-0.118-0.941-0.198-1.893-0.198-2.864c0-12.661,10.263-22.925,22.924-22.925
	c2.253,0,4.426,0.332,6.481,0.939c3.145-4.052,8.05-6.669,13.577-6.669c9.496,0,17.194,7.696,17.194,17.192
	C72.054,42.953,71.634,45.021,70.899,46.935z M54.86,29.32c-3.17,0-6.04,1.287-8.113,3.369c3.353,2.056,6.14,4.945,8.066,8.387
	c0.951-0.162,1.916-0.294,2.913-0.294c3.045,0,5.901,0.801,8.383,2.188l0,0c0.138-0.708,0.214-1.439,0.214-2.188
	C66.322,34.451,61.191,29.32,54.86,29.32z M54.86,17.858c-1.582,0-2.866-1.284-2.866-2.866v-5.73c0-1.582,1.284-2.866,2.866-2.866
	c1.582,0,2.866,1.284,2.866,2.866v5.73C57.726,16.574,56.443,17.858,54.86,17.858z M34.597,24.571l-4.051-4.052
	c-1.119-1.119-1.119-2.933,0-4.052c1.118-1.119,2.933-1.119,4.051,0l4.052,4.052c1.119,1.119,1.119,2.933,0,4.052
	C37.532,25.69,35.718,25.69,34.597,24.571z M40.532,55.108H54.86l-8.596,14.329h10.029L37.668,92.362l5.159-17.192h-9.457
	L40.532,55.108z"/>
</svg>
