<?xml version="1.0" encoding="utf-8"?>
<!-- Generator: Adobe Illustrator 17.0.0, SVG Export Plug-In . SVG Version: 6.00 Build 0)  -->
<!DOCTYPE svg PUBLIC "-//W3C//DTD SVG 1.1//EN" "http://www.w3.org/Graphics/SVG/1.1/DTD/svg11.dtd">
<svg version="1.1" id="Layer_1" xmlns="http://www.w3.org/2000/svg" xmlns:xlink="http://www.w3.org/1999/xlink" x="0px" y="0px"
	 width="100px" height="100px" viewBox="0 0 100 100" enable-background="new 0 0 100 100" xml:space="preserve">
<path fill="#FFFFFF" d="M85.566,43.942h-5.7c-1.573,0-2.85-1.275-2.85-2.85c0-1.573,1.277-2.85,2.85-2.85h5.7
	c1.573,0,2.85,1.277,2.85,2.85C88.416,42.668,87.139,43.942,85.566,43.942z M74.369,24.971c-1.113,1.113-2.917,1.113-4.03,0
	c-1.113-1.112-1.113-2.917,0-4.03l4.03-4.03c1.113-1.112,2.917-1.112,4.03,0c1.113,1.113,1.113,2.919,0,4.03L74.369,24.971z
	 M70.17,47.212L70.17,47.212c2.494,2.97,3.997,6.797,3.997,10.979c0,7.443-4.763,13.755-11.398,16.104v-6.243
	c3.404-1.971,5.7-5.645,5.7-9.861c0-6.294-5.105-11.399-11.4-11.399c-2.28,0-4.395,0.684-6.176,1.84
	c-1.753-7.577-8.512-13.239-16.622-13.239c-9.444,0-17.098,7.655-17.098,17.098c0,5.059,2.21,9.588,5.7,12.719v7.006
	c-6.807-3.945-11.4-11.289-11.4-19.724c0-12.59,10.206-22.797,22.798-22.797c2.24,0,4.403,0.329,6.445,0.932
	c3.128-4.029,8.005-6.632,13.502-6.632c9.444,0,17.098,7.654,17.098,17.098C71.315,43.252,70.901,45.31,70.17,47.212z
	 M54.218,29.694c-3.151,0-6.007,1.28-8.069,3.349c3.335,2.045,6.106,4.919,8.022,8.342c0.946-0.161,1.907-0.292,2.897-0.292
	c3.028,0,5.87,0.797,8.337,2.176l0,0c0.137-0.704,0.214-1.431,0.214-2.176C65.618,34.796,60.513,29.694,54.218,29.694z
	 M54.218,18.294c-1.573,0-2.85-1.275-2.85-2.85V9.745c0-1.573,1.277-2.849,2.85-2.849c1.575,0,2.85,1.275,2.85,2.849v5.699
	C57.068,17.02,55.794,18.294,54.218,18.294z M34.067,24.971l-4.03-4.03c-1.11-1.112-1.11-2.917,0-4.03
	c1.113-1.112,2.92-1.112,4.03,0l4.03,4.03c1.113,1.113,1.113,2.919,0,4.03C36.984,26.084,35.18,26.084,34.067,24.971z M31.42,58.191
	c1.575,0,2.85,1.277,2.85,2.85v22.798c0,1.575-1.275,2.85-2.85,2.85c-1.573,0-2.85-1.275-2.85-2.85V61.041
	C28.569,59.468,29.848,58.191,31.42,58.191z M42.82,63.891c1.573,0,2.85,1.275,2.85,2.85v22.798c0,1.573-1.277,2.85-2.85,2.85
	c-1.575,0-2.85-1.277-2.85-2.85V66.741C39.97,65.165,41.245,63.891,42.82,63.891z M54.218,58.191c1.575,0,2.85,1.277,2.85,2.85
	v22.798c0,1.575-1.275,2.85-2.85,2.85c-1.573,0-2.85-1.275-2.85-2.85V61.041C51.367,59.468,52.646,58.191,54.218,58.191z"/>
</svg>
