<?xml version="1.0" encoding="utf-8"?>
<!-- Generator: Adobe Illustrator 17.0.0, SVG Export Plug-In . SVG Version: 6.00 Build 0)  -->
<!DOCTYPE svg PUBLIC "-//W3C//DTD SVG 1.1//EN" "http://www.w3.org/Graphics/SVG/1.1/DTD/svg11.dtd">
<svg version="1.1" id="Layer_1" xmlns="http://www.w3.org/2000/svg" xmlns:xlink="http://www.w3.org/1999/xlink" x="0px" y="0px"
	 width="100px" height="100px" viewBox="0 0 100 100" enable-background="new 0 0 100 100" xml:space="preserve">
<path fill="#FFFFFF" d="M70.3,71.139c-0.58,0-1.345,0-2.201,0l7.428-9.142c6.591-2.19,11.349-8.398,11.349-15.723
	c0-9.154-7.42-16.572-16.574-16.572c-3.317,0-6.388,0.995-8.978,2.673c-2.553-11.015-12.379-19.25-24.171-19.25
	c-13.73,0-24.861,11.131-24.861,24.865c0,11.284,7.526,20.799,17.828,23.837l-2.795,7.826c-13.51-4.188-23.321-16.78-23.321-31.665
	c0-18.307,14.842-33.151,33.149-33.151c12.441,0,23.267,6.863,28.936,16.999c1.376-0.236,2.77-0.425,4.213-0.425
	c13.732,0,24.863,11.129,24.863,24.861S84.031,71.139,70.3,71.139z M45.439,42.13h20.717l-12.43,20.721h14.502L41.295,96
	l7.459-24.861H35.079L45.439,42.13z"/>
</svg>
