<?xml version="1.0" encoding="utf-8"?>
<!-- Generator: Adobe Illustrator 17.0.0, SVG Export Plug-In . SVG Version: 6.00 Build 0)  -->
<!DOCTYPE svg PUBLIC "-//W3C//DTD SVG 1.1//EN" "http://www.w3.org/Graphics/SVG/1.1/DTD/svg11.dtd">
<svg version="1.1" id="Layer_1" xmlns="http://www.w3.org/2000/svg" xmlns:xlink="http://www.w3.org/1999/xlink" x="0px" y="0px"
	 width="100px" height="100px" viewBox="0 0 100 100" enable-background="new 0 0 100 100" xml:space="preserve">
<path fill="#FFFFFF" d="M75.944,67.831v-8.215c4.476-2.597,7.497-7.427,7.497-12.976c0-8.284-6.713-15.001-14.997-15.001
	c-3.004,0-5.783,0.902-8.127,2.421c-2.31-9.968-11.2-17.42-21.871-17.42c-12.426,0-22.497,10.073-22.497,22.499
	c0,6.655,2.905,12.618,7.497,16.737v9.214C14.487,59.901,8.447,50.237,8.447,39.14c0-16.568,13.429-29.998,29.998-29.998
	c11.258,0,21.055,6.21,26.186,15.381c1.245-0.212,2.505-0.384,3.812-0.384c12.426,0,22.497,10.075,22.497,22.501
	C90.941,56.43,84.676,64.741,75.944,67.831z M34.695,46.642c2.07,0,3.75,1.678,3.75,3.75v7.497c0,2.072-1.68,3.75-3.75,3.75
	c-2.072,0-3.75-1.678-3.75-3.75v-7.497C30.945,48.318,32.623,46.642,34.695,46.642z M34.695,69.14c2.07,0,3.75,1.678,3.75,3.75
	v7.497c0,2.072-1.68,3.75-3.75,3.75c-2.072,0-3.75-1.678-3.75-3.75V72.89C30.945,70.816,32.623,69.14,34.695,69.14z M49.692,54.139
	c2.072,0,3.75,1.68,3.75,3.75v7.5c0,2.07-1.678,3.75-3.75,3.75c-2.07,0-3.746-1.68-3.746-3.75v-7.5
	C45.946,55.819,47.624,54.139,49.692,54.139z M49.692,76.64c2.072,0,3.75,1.678,3.75,3.746v7.5c0,2.072-1.678,3.75-3.75,3.75
	c-2.07,0-3.746-1.678-3.746-3.75v-7.5C45.946,78.316,47.624,76.64,49.692,76.64z M64.693,46.642c2.07,0,3.75,1.678,3.75,3.75v7.497
	c0,2.072-1.68,3.75-3.75,3.75c-2.072,0-3.75-1.678-3.75-3.75v-7.497C60.943,48.318,62.621,46.642,64.693,46.642z M64.693,69.14
	c2.07,0,3.75,1.678,3.75,3.75v7.497c0,2.072-1.68,3.75-3.75,3.75c-2.072,0-3.75-1.678-3.75-3.75V72.89
	C60.943,70.816,62.621,69.14,64.693,69.14z"/>
</svg>
