<?xml version="1.0" encoding="utf-8"?>
<!-- Generator: Adobe Illustrator 17.0.0, SVG Export Plug-In . SVG Version: 6.00 Build 0)  -->
<!DOCTYPE svg PUBLIC "-//W3C//DTD SVG 1.1//EN" "http://www.w3.org/Graphics/SVG/1.1/DTD/svg11.dtd">
<svg version="1.1" id="Layer_1" xmlns="http://www.w3.org/2000/svg" xmlns:xlink="http://www.w3.org/1999/xlink" x="0px" y="0px"
	 width="100px" height="100px" viewBox="0 0 100 100" enable-background="new 0 0 100 100" xml:space="preserve">
<path fill="#FFFFFF" d="M72.418,73.595v-7.627c6.443-1.665,11.211-7.496,11.211-14.458c0-8.253-6.693-14.946-14.946-14.946
	c-2.991,0-5.762,0.897-8.098,2.412c-2.3-9.935-11.16-17.36-21.794-17.36c-12.382,0-22.42,10.039-22.42,22.422
	c0,8.292,4.516,15.518,11.209,19.393v8.305c-10.949-4.438-18.681-15.159-18.681-27.7c0-16.508,13.382-29.894,29.892-29.894
	c11.218,0,20.981,6.188,26.093,15.329c1.241-0.211,2.496-0.383,3.799-0.383c12.381,0,22.418,10.039,22.418,22.418
	C91.101,62.618,83.018,71.811,72.418,73.595z M37.055,62.721c1.033-1.788,3.317-2.397,5.105-1.368l4.103,2.367v-4.737
	c0-2.063,1.674-3.737,3.737-3.737s3.737,1.674,3.737,3.737v4.737l4.101-2.369c1.788-1.03,4.073-0.42,5.103,1.368
	c1.033,1.788,0.42,4.073-1.366,5.105l-4.103,2.369l4.103,2.369c1.786,1.033,2.399,3.317,1.366,5.105
	c-1.031,1.784-3.315,2.397-5.103,1.364l-4.101-2.366v4.737c0,2.065-1.674,3.737-3.737,3.737s-3.737-1.672-3.737-3.737v-4.737
	l-4.101,2.369c-1.788,1.033-4.073,0.42-5.105-1.364c-1.031-1.788-0.42-4.073,1.368-5.105l4.101-2.371l-4.101-2.369
	C36.637,66.792,36.026,64.509,37.055,62.721z M50,73.932c2.063,0,3.737-1.674,3.737-3.737c0-2.065-1.674-3.737-3.737-3.737
	s-3.737,1.672-3.737,3.737C46.263,72.256,47.937,73.932,50,73.932z"/>
</svg>
