<?xml version="1.0" encoding="utf-8"?>
<!-- Generator: Adobe Illustrator 17.0.0, SVG Export Plug-In . SVG Version: 6.00 Build 0)  -->
<!DOCTYPE svg PUBLIC "-//W3C//DTD SVG 1.1//EN" "http://www.w3.org/Graphics/SVG/1.1/DTD/svg11.dtd">
<svg version="1.1" id="Layer_1" xmlns="http://www.w3.org/2000/svg" xmlns:xlink="http://www.w3.org/1999/xlink" x="0px" y="0px"
	 width="100px" height="100px" viewBox="0 0 100 100" enable-background="new 0 0 100 100" xml:space="preserve">
<path fill="#FFFFFF" d="M72.734,74.933v-7.735c6.533-1.688,11.369-7.602,11.369-14.662c0-8.369-6.787-15.157-15.157-15.157
	c-3.034,0-5.844,0.91-8.212,2.446c-2.333-10.075-11.318-17.605-22.101-17.605c-12.557,0-22.736,10.181-22.736,22.738
	c0,8.409,4.58,15.736,11.367,19.666v8.422C16.161,68.547,8.32,57.675,8.32,44.957c0-16.741,13.571-30.315,30.313-30.315
	c11.376,0,21.277,6.276,26.461,15.545c1.258-0.214,2.531-0.388,3.852-0.388c12.555,0,22.734,10.181,22.734,22.734
	C91.68,63.801,83.483,73.123,72.734,74.933z M36.873,63.905c1.048-1.813,3.363-2.431,5.177-1.387l4.161,2.401v-4.803
	c0-2.092,1.698-3.79,3.79-3.79s3.79,1.698,3.79,3.79v4.803l4.159-2.403c1.813-1.044,4.131-0.426,5.175,1.387
	c1.048,1.813,0.426,4.131-1.385,5.177l-4.161,2.403l4.161,2.403c1.811,1.048,2.433,3.363,1.385,5.177
	c-1.046,1.81-3.361,2.431-5.175,1.383l-4.159-2.399v4.803c0,2.094-1.698,3.79-3.79,3.79s-3.79-1.696-3.79-3.79v-4.803l-4.159,2.403
	c-1.813,1.048-4.131,0.426-5.177-1.383c-1.046-1.813-0.426-4.131,1.387-5.177l4.159-2.404l-4.159-2.403
	C36.448,68.034,35.829,65.718,36.873,63.905z M50,75.274c2.092,0,3.79-1.698,3.79-3.79c0-2.094-1.698-3.79-3.79-3.79
	s-3.79,1.696-3.79,3.79C46.21,73.574,47.908,75.274,50,75.274z"/>
</svg>
