<?xml version="1.0" encoding="utf-8"?>
<!-- Generator: Adobe Illustrator 17.0.0, SVG Export Plug-In . SVG Version: 6.00 Build 0)  -->
<!DOCTYPE svg PUBLIC "-//W3C//DTD SVG 1.1//EN" "http://www.w3.org/Graphics/SVG/1.1/DTD/svg11.dtd">
<svg version="1.1" id="Layer_1" xmlns="http://www.w3.org/2000/svg" xmlns:xlink="http://www.w3.org/1999/xlink" x="0px" y="0px"
	 width="100px" height="100px" viewBox="0 0 100 100" enable-background="new 0 0 100 100" xml:space="preserve">
<path fill="#FFFFFF" d="M73.208,75.439v-7.896c6.669-1.723,11.606-7.76,11.606-14.967c0-8.544-6.929-15.472-15.472-15.472
	c-3.097,0-5.965,0.928-8.383,2.497c-2.381-10.285-11.553-17.971-22.561-17.971c-12.818,0-23.209,10.393-23.209,23.211
	c0,8.584,4.675,16.064,11.604,20.076v8.598C15.456,68.92,7.452,57.822,7.452,44.839c0-17.089,13.853-30.947,30.945-30.947
	c11.613,0,21.72,6.406,27.012,15.869c1.284-0.219,2.584-0.397,3.932-0.397c12.817,0,23.208,10.393,23.208,23.208
	C92.548,64.075,84.181,73.592,73.208,75.439z M36.599,64.181c1.07-1.851,3.433-2.482,5.284-1.416l4.248,2.451v-4.903
	c0-2.135,1.733-3.869,3.869-3.869s3.869,1.733,3.869,3.869v4.903l4.246-2.453c1.851-1.066,4.217-0.435,5.283,1.416
	c1.07,1.851,0.435,4.217-1.414,5.284l-4.248,2.453l4.248,2.453c1.849,1.07,2.484,3.433,1.414,5.284
	c-1.068,1.847-3.431,2.482-5.283,1.412l-4.246-2.449v4.903c0,2.137-1.733,3.869-3.869,3.869s-3.869-1.731-3.869-3.869v-4.903
	l-4.246,2.453c-1.851,1.07-4.217,0.435-5.284-1.412c-1.068-1.851-0.435-4.217,1.416-5.284l4.246-2.455l-4.246-2.453
	C36.166,68.396,35.533,66.033,36.599,64.181z M50,75.787c2.135,0,3.869-1.733,3.869-3.869c0-2.137-1.733-3.869-3.869-3.869
	s-3.869,1.731-3.869,3.869C46.131,74.052,47.865,75.787,50,75.787z"/>
</svg>
