<?xml version="1.0" encoding="utf-8"?>
<!-- Generator: Adobe Illustrator 17.0.0, SVG Export Plug-In . SVG Version: 6.00 Build 0)  -->
<!DOCTYPE svg PUBLIC "-//W3C//DTD SVG 1.1//EN" "http://www.w3.org/Graphics/SVG/1.1/DTD/svg11.dtd">
<svg version="1.1" id="Layer_1" xmlns="http://www.w3.org/2000/svg" xmlns:xlink="http://www.w3.org/1999/xlink" x="0px" y="0px"
	 width="100px" height="100px" viewBox="0 0 100 100" enable-background="new 0 0 100 100" xml:space="preserve">
<path fill="#FFFFFF" d="M88.732,53.724h-6.167c-1.702,0-3.083-1.38-3.083-3.083c0-1.702,1.381-3.08,3.083-3.08h6.167
	c1.702,0,3.083,1.38,3.083,3.08C91.816,52.344,90.435,53.724,88.732,53.724z M76.619,33.2c-1.204,1.204-3.156,1.204-4.36,0
	c-1.204-1.203-1.204-3.156,0-4.358l4.36-4.36c1.204-1.204,3.156-1.204,4.36,0c1.204,1.203,1.204,3.156,0,4.36L76.619,33.2z
	 M72.076,57.262L72.076,57.262c2.696,3.216,4.326,7.354,4.326,11.879c0,10.214-8.282,18.498-18.499,18.498
	c-4.278,0-19.736,0-24.665,0c-13.621,0-24.665-11.042-24.665-24.665S19.617,38.31,33.238,38.31c2.424,0,4.764,0.358,6.973,1.008
	c3.384-4.358,8.661-7.175,14.608-7.175c10.217,0,18.499,8.284,18.499,18.498C73.317,52.976,72.865,55.206,72.076,57.262z
	 M14.738,62.974c0,10.217,8.281,18.498,18.498,18.498c5.575,0,20.01,0,24.665,0c6.811,0,12.332-5.522,12.332-12.331
	c0-6.811-5.521-12.334-12.332-12.334c-2.467,0-4.753,0.743-6.68,1.99c-1.898-8.196-9.21-14.321-17.984-14.321
	C23.019,44.477,14.738,52.757,14.738,62.974z M54.817,38.31c-3.41,0-6.498,1.384-8.729,3.622c3.608,2.214,6.606,5.324,8.678,9.025
	c1.024-0.174,2.061-0.316,3.134-0.316c3.276,0,6.35,0.862,9.019,2.354l0,0c0.148-0.762,0.231-1.548,0.231-2.354
	C67.151,43.832,61.629,38.31,54.817,38.31z M54.817,25.976c-1.702,0-3.082-1.38-3.082-3.082v-6.165c0-1.704,1.381-3.083,3.082-3.083
	c1.704,0,3.083,1.38,3.083,3.083v6.165C57.901,24.597,56.523,25.976,54.817,25.976z M33.017,33.2l-4.358-4.358
	c-1.204-1.204-1.204-3.157,0-4.36c1.203-1.204,3.156-1.204,4.358,0l4.36,4.36c1.204,1.203,1.204,3.156,0,4.358
	C36.175,34.404,34.221,34.404,33.017,33.2z"/>
</svg>
