<?xml version="1.0" encoding="utf-8"?>
<!-- Generator: Adobe Illustrator 17.0.0, SVG Export Plug-In . SVG Version: 6.00 Build 0)  -->
<!DOCTYPE svg PUBLIC "-//W3C//DTD SVG 1.1//EN" "http://www.w3.org/Graphics/SVG/1.1/DTD/svg11.dtd">
<svg version="1.1" id="Layer_1" xmlns="http://www.w3.org/2000/svg" xmlns:xlink="http://www.w3.org/1999/xlink" x="0px" y="0px"
	 width="100px" height="100px" viewBox="0 0 100 100" enable-background="new 0 0 100 100" xml:space="preserve">
<path fill="#FFFFFF" d="M82.452,41.222L82.452,41.222c2.268,3.229,3.612,7.155,3.612,11.405c0,8.651-5.537,15.993-13.252,18.725
	v-7.259c3.958-2.295,6.624-6.563,6.624-11.466c0-7.32-5.932-13.256-13.252-13.256c-2.651,0-5.11,0.799-7.181,2.139
	c-2.038-8.808-9.897-15.393-19.327-15.393c-10.981,0-19.88,8.901-19.88,19.882c0,5.88,2.567,11.15,6.624,14.79v8.142
	c-7.912-4.586-13.252-13.126-13.252-22.932c0-14.641,11.867-26.508,26.508-26.508c3.317,0,6.485,0.621,9.411,1.735l0,0
	c2.709-7.758,10.071-13.333,18.753-13.333c1.253,0,2.469,0.129,3.657,0.351c-0.217,0.953-0.343,1.944-0.343,2.963
	c0,7.32,5.932,13.254,13.252,13.254c1.019,0,2.01-0.126,2.964-0.345c0.22,1.188,0.35,2.408,0.35,3.659
	C87.72,32.966,85.713,37.68,82.452,41.222z M64.875,14.864c-4.805,1.1-8.573,4.822-9.816,9.569l0,0
	c3.178,2.273,5.837,5.223,7.754,8.651c1.1-0.187,2.214-0.34,3.369-0.34c4.336,0,8.339,1.407,11.609,3.763l0,0
	c1.42-1.622,2.459-3.592,2.958-5.769C72.708,29.238,66.375,22.908,64.875,14.864z M36.361,52.627c1.831,0,3.314,1.483,3.314,3.314
	v6.624c0,1.831-1.483,3.314-3.314,3.314c-1.829,0-3.314-1.483-3.314-3.314v-6.624C33.047,54.108,34.533,52.627,36.361,52.627z
	 M36.361,72.507c1.831,0,3.314,1.483,3.314,3.314v6.624c0,1.831-1.483,3.314-3.314,3.314c-1.829,0-3.314-1.483-3.314-3.314v-6.624
	C33.047,73.988,34.533,72.507,36.361,72.507z M49.617,59.252c1.829,0,3.311,1.485,3.311,3.314v6.628
	c0,1.829-1.483,3.314-3.311,3.314c-1.831,0-3.314-1.485-3.314-3.314v-6.628C46.303,60.736,47.786,59.252,49.617,59.252z
	 M49.617,79.135c1.829,0,3.311,1.483,3.311,3.311v6.628c0,1.831-1.483,3.314-3.311,3.314c-1.831,0-3.314-1.483-3.314-3.314v-6.628
	C46.303,80.616,47.786,79.135,49.617,79.135z M62.869,52.627c1.831,0,3.314,1.483,3.314,3.314v6.624
	c0,1.831-1.483,3.314-3.314,3.314c-1.829,0-3.314-1.483-3.314-3.314v-6.624C59.555,54.108,61.041,52.627,62.869,52.627z
	 M62.869,72.507c1.831,0,3.314,1.483,3.314,3.314v6.624c0,1.831-1.483,3.314-3.314,3.314c-1.829,0-3.314-1.483-3.314-3.314v-6.624
	C59.555,73.988,61.041,72.507,62.869,72.507z"/>
</svg>
