<?xml version="1.0" encoding="utf-8"?>
<!-- Generator: Adobe Illustrator 17.0.0, SVG Export Plug-In . SVG Version: 6.00 Build 0)  -->
<!DOCTYPE svg PUBLIC "-//W3C//DTD SVG 1.1//EN" "http://www.w3.org/Graphics/SVG/1.1/DTD/svg11.dtd">
<svg version="1.1" id="Layer_1" xmlns="http://www.w3.org/2000/svg" xmlns:xlink="http://www.w3.org/1999/xlink" x="0px" y="0px"
	 width="100px" height="100px" viewBox="0 0 100 100" enable-background="new 0 0 100 100" xml:space="preserve">
<path fill="#FFFFFF" d="M81.629,41.572L81.629,41.572c1.624,2.314,2.748,4.997,3.239,7.897h-0.006
	c0.176,1.054,0.291,2.13,0.291,3.234c0,10.717-8.688,19.405-19.405,19.405c-0.451,0-1.048,0-1.717,0l5.796-7.135
	c5.144-1.709,8.859-6.551,8.859-12.27c0-1.118-0.158-2.198-0.425-3.234l0,0c-1.439-5.575-6.487-9.702-12.512-9.702
	c-2.588,0-4.984,0.778-7.007,2.088c-1.991-8.597-9.661-15.024-18.865-15.024c-10.716,0-19.403,8.688-19.403,19.405
	c0,1.105,0.113,2.18,0.291,3.233h-0.023c1.236,7.355,6.611,13.298,13.646,15.372l-2.183,6.11
	c-9.546-2.961-16.707-11.306-17.977-21.481l0,0c-0.133-1.061-0.225-2.135-0.225-3.233c0-14.29,11.584-25.872,25.872-25.872
	c3.239,0,6.33,0.606,9.186,1.695l0,0c2.644-7.573,9.831-13.014,18.304-13.014c1.223,0,2.413,0.126,3.571,0.341
	c-0.213,0.932-0.336,1.897-0.336,2.892c0,7.145,5.793,12.936,12.936,12.936c0.996,0,1.96-0.123,2.892-0.335
	c0.217,1.158,0.343,2.348,0.343,3.569C86.77,33.515,84.81,38.116,81.629,41.572z M64.475,15.849c-4.69,1.072-8.369,4.704-9.58,9.338
	l0,0c3.099,2.219,5.694,5.099,7.565,8.445c1.074-0.184,2.164-0.332,3.288-0.332c4.235,0,8.139,1.371,11.33,3.673l0,0
	c1.388-1.583,2.402-3.506,2.887-5.631C72.117,29.877,65.936,23.699,64.475,15.849z M46.345,49.469h16.171L52.814,65.64h11.319
	L43.11,91.512l5.822-19.403H38.26L46.345,49.469z"/>
</svg>
