<?xml version="1.0" encoding="utf-8"?>
<!-- Generator: Adobe Illustrator 17.0.0, SVG Export Plug-In . SVG Version: 6.00 Build 0)  -->
<!DOCTYPE svg PUBLIC "-//W3C//DTD SVG 1.1//EN" "http://www.w3.org/Graphics/SVG/1.1/DTD/svg11.dtd">
<svg version="1.1" id="Layer_1" xmlns="http://www.w3.org/2000/svg" xmlns:xlink="http://www.w3.org/1999/xlink" x="0px" y="0px"
	 width="100px" height="100px" viewBox="0 0 100 100" enable-background="new 0 0 100 100" xml:space="preserve">
<path fill="#FFFFFF" d="M91.84,78.761c-2.088,0-3.78-1.723-3.78-3.85c0-2.125,1.693-3.85,3.78-3.85c2.088,0,3.782,1.725,3.782,3.85
	C95.622,77.038,93.929,78.761,91.84,78.761z M74.823,65.867v-8.433c4.518-2.662,7.565-7.624,7.565-13.32
	c0-8.503-6.772-15.397-15.127-15.397c-3.027,0-5.83,0.924-8.196,2.485C56.736,20.968,47.768,13.32,37.006,13.32
	c-12.532,0-22.691,10.34-22.691,23.094c0,6.833,2.933,12.951,7.565,17.18v9.463C12.846,57.729,6.753,47.808,6.753,36.415
	c0-17.006,13.544-30.793,30.253-30.793c11.354,0,21.235,6.373,26.409,15.79c1.256-0.217,2.528-0.394,3.844-0.394
	c12.53,0,22.689,10.34,22.689,23.097C89.949,54.169,83.629,62.695,74.823,65.867z M12.426,80.685c2.088,0,3.78,1.723,3.78,3.85
	c0,2.125-1.693,3.85-3.78,3.85s-3.782-1.725-3.782-3.85C8.644,82.406,10.336,80.685,12.426,80.685z M31.333,47.966
	c0-2.125-0.197-3.85,1.891-3.85c2.088,0,1.891,1.725,1.891,3.85V94.16h-3.782l0,0l0,0c0-4.252-3.385-7.7-7.562-7.7v-3.85
	c2.918,0,5.554,1.155,7.562,2.997V47.966z M48.351,74.911c-2.088,0-1.891-1.723-1.891-3.85V55.665c0-2.127-0.197-3.85,1.891-3.85
	c2.088,0,1.891,1.723,1.891,3.85v15.395C50.242,73.188,50.439,74.911,48.351,74.911z M48.351,82.61c2.088,0,3.782,1.723,3.782,3.85
	c0,2.125-1.694,3.85-3.782,3.85c-2.088,0-3.782-1.725-3.782-3.85C44.568,84.331,46.263,82.61,48.351,82.61z M63.478,44.117
	c2.088,0,1.891,1.725,1.891,3.85v34.679c3.447-4.685,8.931-7.735,15.127-7.735v3.85c-8.355,0-15.127,6.895-15.127,15.399h-3.782
	c0-0.526,0.038-1.041,0.077-1.554c-0.102-0.642-0.077-1.432-0.077-2.297V47.966C61.587,45.841,61.39,44.117,63.478,44.117z"/>
</svg>
