<?xml version="1.0" encoding="utf-8"?>
<!-- Generator: Adobe Illustrator 17.0.0, SVG Export Plug-In . SVG Version: 6.00 Build 0)  -->
<!DOCTYPE svg PUBLIC "-//W3C//DTD SVG 1.1//EN" "http://www.w3.org/Graphics/SVG/1.1/DTD/svg11.dtd">
<svg version="1.1" id="Layer_1" xmlns="http://www.w3.org/2000/svg" xmlns:xlink="http://www.w3.org/1999/xlink" x="0px" y="0px"
	 width="100px" height="100px" viewBox="0 0 100 100" enable-background="new 0 0 100 100" xml:space="preserve">
<path fill="#FFFFFF" d="M92.131,79.772c-2.134,0-3.864-1.73-3.864-3.866c0-2.134,1.73-3.866,3.864-3.866
	c2.134,0,3.866,1.732,3.866,3.866C95.997,78.042,94.267,79.772,92.131,79.772z M74.737,66.826v-8.468
	c4.618-2.673,7.732-7.656,7.732-13.376c0-8.538-6.922-15.461-15.461-15.461c-3.095,0-5.959,0.928-8.377,2.495
	C56.251,21.739,47.085,14.06,36.085,14.06c-12.809,0-23.193,10.384-23.193,23.191c0,6.862,2.998,13.005,7.732,17.251v9.502
	C11.39,58.654,5.163,48.691,5.163,37.251c0-17.077,13.843-30.921,30.922-30.921c11.605,0,21.704,6.4,26.993,15.856
	c1.283-0.218,2.584-0.396,3.93-0.396c12.807,0,23.191,10.384,23.191,23.193C90.198,55.078,83.739,63.64,74.737,66.826z
	 M10.961,81.705c2.134,0,3.864,1.73,3.864,3.866c0,2.134-1.73,3.866-3.864,3.866s-3.866-1.732-3.866-3.866
	C7.095,83.433,8.825,81.705,10.961,81.705z M30.286,48.85c0-2.134-0.201-3.866,1.933-3.866c2.134,0,1.933,1.732,1.933,3.866v46.386
	h-3.866l0,0l0,0c0-4.27-3.46-7.732-7.73-7.732v-3.866c2.982,0,5.677,1.16,7.73,3.01V48.85z M47.68,75.907
	c-2.134,0-1.933-1.73-1.933-3.866V56.581c0-2.136-0.201-3.866,1.933-3.866c2.134,0,1.933,1.73,1.933,3.866v15.459
	C49.613,74.177,49.814,75.907,47.68,75.907z M47.68,83.638c2.134,0,3.866,1.73,3.866,3.866c0,2.134-1.732,3.866-3.866,3.866
	c-2.134,0-3.866-1.732-3.866-3.866C43.815,85.366,45.547,83.638,47.68,83.638z M63.142,44.984c2.134,0,1.933,1.732,1.933,3.866
	v34.823c3.524-4.705,9.129-7.766,15.461-7.766v3.866c-8.54,0-15.461,6.924-15.461,15.463h-3.866c0-0.528,0.039-1.046,0.079-1.56
	c-0.104-0.646-0.079-1.438-0.079-2.306V48.85C61.209,46.716,61.008,44.984,63.142,44.984z"/>
</svg>
