<?xml version="1.0" encoding="utf-8"?>
<!-- Generator: Adobe Illustrator 17.0.0, SVG Export Plug-In . SVG Version: 6.00 Build 0)  -->
<!DOCTYPE svg PUBLIC "-//W3C//DTD SVG 1.1//EN" "http://www.w3.org/Graphics/SVG/1.1/DTD/svg11.dtd">
<svg version="1.1" id="Layer_1" xmlns="http://www.w3.org/2000/svg" xmlns:xlink="http://www.w3.org/1999/xlink" x="0px" y="0px"
	 width="100px" height="100px" viewBox="0 0 100 100" enable-background="new 0 0 100 100" xml:space="preserve">
<path fill="#FFFFFF" d="M80.177,69.802v-9.21c5.022-2.907,8.407-8.327,8.407-14.548c0-9.286-7.528-16.816-16.814-16.816
	c-3.366,0-6.483,1.009-9.111,2.714c-2.588-11.178-12.559-19.53-24.523-19.53c-13.93,0-25.223,11.294-25.223,25.223
	c0,7.463,3.259,14.144,8.407,18.763v10.335C11.279,60.913,4.505,50.078,4.505,37.634c0-18.574,15.057-33.63,33.63-33.63
	c12.622,0,23.607,6.961,29.361,17.245c1.394-0.238,2.809-0.431,4.274-0.431c13.93,0,25.223,11.294,25.223,25.225
	C96.994,57.024,89.968,66.337,80.177,69.802z M33.933,71.269c-2.321,0-2.102-1.882-2.102-4.2V50.25c0-2.321-0.219-4.205,2.102-4.205
	s2.102,1.884,2.102,4.205v16.818C36.035,69.388,36.254,71.269,33.933,71.269z M33.933,79.678c2.321,0,4.202,1.884,4.202,4.205
	c0,2.323-1.882,4.205-4.202,4.205s-4.205-1.882-4.205-4.205C29.729,81.562,31.61,79.678,33.933,79.678z M50.749,79.678
	c-2.321,0-2.102-1.882-2.102-4.205V58.66c0-2.323-0.219-4.205,2.102-4.205s2.102,1.882,2.102,4.205v16.814
	C52.852,77.797,53.07,79.678,50.749,79.678z M50.749,88.088c2.321,0,4.202,1.882,4.202,4.205c0,2.321-1.882,4.205-4.202,4.205
	s-4.205-1.884-4.205-4.205C46.545,89.967,48.426,88.088,50.749,88.088z M67.566,71.269c-2.321,0-2.102-1.882-2.102-4.2V50.25
	c0-2.321-0.219-4.205,2.102-4.205c2.321,0,2.102,1.884,2.102,4.205v16.818C69.668,69.388,69.887,71.269,67.566,71.269z
	 M67.566,79.678c2.321,0,4.205,1.884,4.205,4.205c0,2.323-1.884,4.205-4.205,4.205c-2.321,0-4.205-1.882-4.205-4.205
	C63.361,81.562,65.245,79.678,67.566,79.678z"/>
</svg>
