<?xml version="1.0" encoding="utf-8"?>
<!-- Generator: Adobe Illustrator 17.0.0, SVG Export Plug-In . SVG Version: 6.00 Build 0)  -->
<!DOCTYPE svg PUBLIC "-//W3C//DTD SVG 1.1//EN" "http://www.w3.org/Graphics/SVG/1.1/DTD/svg11.dtd">
<svg version="1.1" id="Layer_1" xmlns="http://www.w3.org/2000/svg" xmlns:xlink="http://www.w3.org/1999/xlink" x="0px" y="0px"
	 width="100px" height="100px" viewBox="0 0 100 100" enable-background="new 0 0 100 100" xml:space="preserve">
<path fill="#FFFFFF" d="M79.861,70.233v-9.111c4.968-2.876,8.317-8.237,8.317-14.391c0-9.186-7.447-16.635-16.633-16.635
	c-3.33,0-6.414,0.998-9.013,2.685c-2.56-11.057-12.424-19.32-24.259-19.32c-13.78,0-24.952,11.172-24.952,24.952
	c0,7.383,3.223,13.992,8.317,18.561v10.224C11.705,61.44,5.004,50.721,5.004,38.412c0-18.374,14.894-33.268,33.268-33.268
	c12.486,0,23.352,6.886,29.044,17.059c1.379-0.235,2.778-0.426,4.228-0.426c13.78,0,24.952,11.172,24.952,24.954
	C96.496,57.593,89.546,66.805,79.861,70.233z M34.115,71.684c-2.296,0-2.08-1.861-2.08-4.155V50.892c0-2.296-0.216-4.159,2.08-4.159
	c2.296,0,2.08,1.863,2.08,4.159v16.637C36.195,69.823,36.411,71.684,34.115,71.684z M34.115,80.003c2.296,0,4.157,1.863,4.157,4.159
	c0,2.298-1.861,4.159-4.157,4.159c-2.296,0-4.159-1.861-4.159-4.159C29.956,81.866,31.817,80.003,34.115,80.003z M50.75,80.003
	c-2.296,0-2.08-1.861-2.08-4.159V59.211c0-2.298-0.216-4.159,2.08-4.159s2.08,1.861,2.08,4.159v16.633
	C52.83,78.142,53.046,80.003,50.75,80.003z M50.75,88.321c2.296,0,4.157,1.861,4.157,4.159c0,2.296-1.861,4.159-4.157,4.159
	s-4.159-1.863-4.159-4.159C46.591,90.181,48.452,88.321,50.75,88.321z M67.385,71.684c-2.296,0-2.08-1.861-2.08-4.155V50.892
	c0-2.296-0.216-4.159,2.08-4.159c2.296,0,2.08,1.863,2.08,4.159v16.637C69.465,69.823,69.681,71.684,67.385,71.684z M67.385,80.003
	c2.296,0,4.159,1.863,4.159,4.159c0,2.298-1.863,4.159-4.159,4.159c-2.296,0-4.159-1.861-4.159-4.159
	C63.226,81.866,65.089,80.003,67.385,80.003z"/>
</svg>
