<?xml version="1.0" encoding="utf-8"?>
<!-- Generator: Adobe Illustrator 17.0.0, SVG Export Plug-In . SVG Version: 6.00 Build 0)  -->
<!DOCTYPE svg PUBLIC "-//W3C//DTD SVG 1.1//EN" "http://www.w3.org/Graphics/SVG/1.1/DTD/svg11.dtd">
<svg version="1.1" id="Layer_1" xmlns="http://www.w3.org/2000/svg" xmlns:xlink="http://www.w3.org/1999/xlink" x="0px" y="0px"
	 width="100px" height="100px" viewBox="0 0 100 100" enable-background="new 0 0 100 100" xml:space="preserve">
<path fill="#FFFFFF" d="M71.872,23.344c-1.439,0-2.831,0.19-4.205,0.424C62.009,13.65,51.203,6.803,38.785,6.803
	c-18.273,0-33.087,14.813-33.087,33.085c0,12.393,6.825,23.178,16.912,28.845c0.571-2.61,1.845-5.098,3.874-7.125l0.118-0.118
	c-7.537-4.263-12.629-12.333-12.629-21.602c0-13.704,11.11-24.814,24.814-24.814c11.77,0,21.578,8.219,24.126,19.214
	c2.585-1.675,5.652-2.67,8.962-2.67c9.137,0,16.544,7.406,16.544,16.544c0,7.121-4.513,13.177-10.827,15.507
	c1.63,2.37,2.469,5.111,2.527,7.874c9.648-3.402,16.575-12.571,16.575-23.381C96.689,34.455,85.579,23.344,71.872,23.344z
	 M36.717,63.07l-4.387,4.387c-2.422,2.424-2.422,6.349,0,8.773c2.424,2.424,6.351,2.424,8.773,0c2.424-2.424,2.424-6.349,0-8.773
	L36.717,63.07z M51.194,79.612l-4.387,4.387c-2.424,2.424-2.424,6.354,0,8.773c2.422,2.424,6.349,2.424,8.771,0
	c2.424-2.42,2.424-6.349,0-8.773L51.194,79.612z M65.67,63.07l-4.387,4.387c-2.424,2.424-2.424,6.349,0,8.773
	c2.422,2.424,6.349,2.424,8.773,0c2.422-2.424,2.422-6.349,0-8.773L65.67,63.07z"/>
</svg>
