<?xml version="1.0" encoding="iso-8859-1"?>
<!-- Generator: Adobe Illustrator 18.0.0, SVG Export Plug-In . SVG Version: 6.00 Build 0)  -->
<!DOCTYPE svg PUBLIC "-//W3C//DTD SVG 1.1//EN" "http://www.w3.org/Graphics/SVG/1.1/DTD/svg11.dtd">
<svg xmlns="http://www.w3.org/2000/svg" xmlns:xlink="http://www.w3.org/1999/xlink" version="1.1" id="Capa_1" x="0px" y="0px" viewBox="0 0 450.669 450.669" style="enable-background:new 0 0 450.669 450.669;" xml:space="preserve" width="512px" height="512px">
<g>
	<path d="M170.197,240.673c14.083,0,25.499-11.416,25.499-25.499c0-14.083-11.416-51.499-25.499-51.499   c-14.083,0-25.499,37.416-25.499,51.499C144.699,229.257,156.115,240.673,170.197,240.673z" fill="#FFFFFF"/>
	<path d="M273.012,176.676c14.083,0,25.499-11.416,25.499-25.499s-11.416-51.499-25.499-51.499   c-14.083,0-25.499,37.416-25.499,51.499S258.93,176.676,273.012,176.676z" fill="#FFFFFF"/>
	<path d="M201.605,80.093c14.083,0,25.499-11.416,25.499-25.499c0-14.083-11.416-51.499-25.499-51.499s-25.499,37.416-25.499,51.499   C176.106,68.677,187.522,80.093,201.605,80.093z" fill="#FFFFFF"/>
	<path d="M199.836,339.597c0,14.083,11.416,25.499,25.499,25.499c14.083,0,25.499-11.416,25.499-25.499   c0-14.083-11.416-51.499-25.499-51.499C211.252,288.098,199.836,325.514,199.836,339.597z" fill="#FFFFFF"/>
	<path d="M435.669,322.332h-91.692c-8.284,0-15,6.716-15,15c0,34.267-47.462,63.216-103.642,63.216   c-56.18,0-103.643-28.949-103.643-63.216c0-8.284-6.716-15-15-15H15c-8.284,0-15,6.716-15,15v95.242c0,8.284,6.716,15,15,15   h420.669c8.284,0,15-6.716,15-15v-95.242C450.669,329.048,443.954,322.332,435.669,322.332z" fill="#FFFFFF"/>
</g>
<g>
</g>
<g>
</g>
<g>
</g>
<g>
</g>
<g>
</g>
<g>
</g>
<g>
</g>
<g>
</g>
<g>
</g>
<g>
</g>
<g>
</g>
<g>
</g>
<g>
</g>
<g>
</g>
<g>
</g>
</svg>
