<?xml version="1.0" encoding="iso-8859-1"?>
<!-- Generator: Adobe Illustrator 19.0.0, SVG Export Plug-In . SVG Version: 6.00 Build 0)  -->
<svg xmlns="http://www.w3.org/2000/svg" xmlns:xlink="http://www.w3.org/1999/xlink" version="1.1" id="Layer_1" x="0px" y="0px" viewBox="0 0 512 512" style="enable-background:new 0 0 512 512;" xml:space="preserve" width="512px" height="512px">
<g>
	<g>
		<path d="M409.918,34.21h-68.41c-0.095,0-0.187,0.011-0.28,0.014c-7.699-10.377-20.037-17.116-33.922-17.116h-17.541    c-6.668-8.99-16.565-14.924-27.793-16.527c-4.24-0.774-7.703-0.774-11.944,0c-11.228,1.603-21.125,7.537-27.793,16.527h-17.541    c-13.885,0-26.223,6.739-33.922,17.116c-0.094-0.003-0.187-0.014-0.282-0.014h-68.409c-23.28,0-42.221,18.941-42.221,42.221    v393.349c0,23.28,18.941,42.221,42.221,42.221h307.838c23.28,0,42.221-18.941,42.221-42.221V76.43    C452.139,53.15,433.198,34.21,409.918,34.21z M204.693,33.141h21.846c2.854,0,5.493-1.518,6.929-3.985    c4.063-6.981,10.969-11.618,18.945-12.721c0.125-0.017,0.25-0.037,0.375-0.061c2.419-0.453,4.006-0.453,6.425,0    c0.124,0.022,0.249,0.044,0.375,0.061c7.976,1.103,14.882,5.74,18.945,12.721c1.436,2.467,4.075,3.985,6.929,3.985h21.846    c14.44,0,26.188,11.748,26.188,26.188v26.188H178.506V59.328h-0.001C178.505,44.889,190.253,33.141,204.693,33.141z     M170.488,101.549H341.51c4.427,0,8.017-3.589,8.017-8.017v-9.086h52.375v377.315H110.097V84.447h52.375v9.085    C162.472,97.96,166.06,101.549,170.488,101.549z M436.106,469.779c0,14.44-11.748,26.188-26.188,26.188H102.08    c-14.44,0-26.188-11.748-26.188-26.188V76.43c0-14.44,11.748-26.188,26.188-26.188h61.387c-0.646,2.929-0.995,5.967-0.995,9.086    v9.086H102.08c-4.427,0-8.017,3.589-8.017,8.017v393.349c0,4.427,3.589,8.017,8.017,8.017h307.838    c4.427,0,8.017-3.589,8.017-8.017V76.43c0-4.427-3.589-8.017-8.017-8.017h-60.392v-9.086c0-3.119-0.351-6.157-0.995-9.086h61.387    c14.44,0,26.188,11.748,26.188,26.188V469.779z" fill="#de4d4f"/>
	</g>
</g>
<g>
	<g>
		<path d="M315.856,128.271H196.142c-4.427,0-8.017,3.589-8.017,8.017s3.588,8.017,8.017,8.017h119.715    c4.427,0,8.017-3.589,8.017-8.017S320.284,128.271,315.856,128.271z" fill="#de4d4f"/>
	</g>
</g>
<g>
	<g>
		<path d="M332.958,162.475H179.039c-4.427,0-8.017,3.589-8.017,8.017s3.588,8.017,8.017,8.017h153.919    c4.427,0,8.017-3.589,8.017-8.017S337.386,162.475,332.958,162.475z" fill="#de4d4f"/>
	</g>
</g>
<g>
	<g>
		<path d="M170.488,205.231h-25.653c-4.428,0-8.017,3.589-8.017,8.017s3.589,8.017,8.017,8.017h25.653    c4.427,0,8.017-3.589,8.017-8.017S174.916,205.231,170.488,205.231z" fill="#de4d4f"/>
	</g>
</g>
<g>
	<g>
		<path d="M170.488,342.048h-25.653c-4.427,0-8.017,3.589-8.017,8.017s3.589,8.017,8.017,8.017h25.653    c4.427,0,8.017-3.589,8.017-8.017S174.916,342.048,170.488,342.048z" fill="#de4d4f"/>
	</g>
</g>
<g>
	<g>
		<path d="M170.488,239.435h-25.653c-4.427,0-8.017,3.589-8.017,8.017s3.589,8.017,8.017,8.017h25.653    c4.427,0,8.017-3.589,8.017-8.017S174.916,239.435,170.488,239.435z" fill="#de4d4f"/>
	</g>
</g>
<g>
	<g>
		<path d="M170.488,273.639h-25.653c-4.427,0-8.017,3.589-8.017,8.017s3.589,8.017,8.017,8.017h25.653    c4.427,0,8.017-3.589,8.017-8.017S174.916,273.639,170.488,273.639z" fill="#de4d4f"/>
	</g>
</g>
<g>
	<g>
		<path d="M170.488,307.843h-25.653c-4.427,0-8.017,3.589-8.017,8.017s3.589,8.017,8.017,8.017h25.653    c4.427,0,8.017-3.589,8.017-8.017S174.916,307.843,170.488,307.843z" fill="#de4d4f"/>
	</g>
</g>
<g>
	<g>
		<path d="M367.157,205.228h-162.47c-4.427,0-8.017,3.589-8.017,8.017s3.589,8.017,8.017,8.017h162.47    c4.427,0,8.017-3.589,8.017-8.017S371.585,205.228,367.157,205.228z" fill="#de4d4f"/>
	</g>
</g>
<g>
	<g>
		<path d="M367.157,239.432h-162.47c-4.427,0-8.017,3.589-8.017,8.017s3.589,8.017,8.017,8.017h162.47    c4.427,0,8.017-3.589,8.017-8.017S371.585,239.432,367.157,239.432z" fill="#de4d4f"/>
	</g>
</g>
<g>
	<g>
		<path d="M367.157,273.636h-162.47c-4.427,0-8.017,3.589-8.017,8.017s3.589,8.017,8.017,8.017h162.47    c4.427,0,8.017-3.589,8.017-8.017S371.585,273.636,367.157,273.636z" fill="#de4d4f"/>
	</g>
</g>
<g>
	<g>
		<path d="M315.98,307.847c-0.042-0.001-0.082-0.006-0.125-0.006H204.687c-4.427,0-8.017,3.589-8.017,8.017s3.589,8.017,8.017,8.017    h67.428c-6.05,5.112-11.189,11.262-15.155,18.171h-52.274c-4.427,0-8.017,3.589-8.017,8.017s3.589,8.017,8.017,8.017h45.634    c-1.517,5.629-2.339,11.539-2.339,17.64c0,37.426,30.448,67.874,67.874,67.874c37.426,0,67.874-30.448,67.874-67.874    C383.73,338.333,353.35,307.915,315.98,307.847z M315.856,427.558c-28.585,0-51.841-23.256-51.841-51.841    c0-28.585,23.256-51.841,51.841-51.841c28.585,0,51.841,23.256,51.841,51.841C367.697,404.303,344.441,427.558,315.856,427.558z" fill="#de4d4f"/>
	</g>
</g>
<g>
	<g>
		<path d="M347.177,352.947c-3.13-3.131-8.206-3.131-11.337,0l-28.536,28.536l-11.434-11.434c-3.131-3.131-8.207-3.131-11.337,0    c-3.131,3.131-3.131,8.207,0,11.337l17.102,17.102c1.565,1.565,3.617,2.348,5.668,2.348s4.103-0.782,5.668-2.348l34.204-34.204    C350.308,361.153,350.308,356.077,347.177,352.947z" fill="#de4d4f"/>
	</g>
</g>
<g>
	<g>
		<circle cx="255.996" cy="42.226" r="8.017" fill="#de4d4f"/>
	</g>
</g>
<g>
</g>
<g>
</g>
<g>
</g>
<g>
</g>
<g>
</g>
<g>
</g>
<g>
</g>
<g>
</g>
<g>
</g>
<g>
</g>
<g>
</g>
<g>
</g>
<g>
</g>
<g>
</g>
<g>
</g>
</svg>
