<?xml version="1.0" encoding="utf-8"?>
<!-- Generator: Adobe Illustrator 17.0.0, SVG Export Plug-In . SVG Version: 6.00 Build 0)  -->
<!DOCTYPE svg PUBLIC "-//W3C//DTD SVG 1.1//EN" "http://www.w3.org/Graphics/SVG/1.1/DTD/svg11.dtd">
<svg version="1.1" id="Layer_1" xmlns="http://www.w3.org/2000/svg" xmlns:xlink="http://www.w3.org/1999/xlink" x="0px" y="0px"
	 width="100px" height="100px" viewBox="0 0 100 100" enable-background="new 0 0 100 100" xml:space="preserve">
<path fill="#FFFFFF" d="M95.872,82.334c-2.346,0-4.248-1.936-4.248-4.326c0-2.388,1.902-4.326,4.248-4.326
	c2.346,0,4.25,1.938,4.25,4.326C100.122,80.398,98.22,82.334,95.872,82.334z M76.748,67.845v-9.477
	c5.077-2.992,8.501-8.568,8.501-14.969c0-9.555-7.61-17.303-16.999-17.303c-3.402,0-6.552,1.038-9.21,2.793
	C56.423,17.388,46.345,8.793,34.251,8.793c-14.083,0-25.5,11.62-25.5,25.953c0,7.679,3.296,14.554,8.501,19.306v10.634
	C7.1,58.699,0.253,47.55,0.253,34.747c0-19.111,15.22-34.604,33.998-34.604c12.759,0,23.863,7.162,29.678,17.744
	c1.411-0.244,2.841-0.443,4.32-0.443c14.081,0,25.497,11.62,25.497,25.956C93.747,54.698,86.644,64.28,76.748,67.845z M6.628,84.497
	c2.346,0,4.248,1.936,4.248,4.326c0,2.388-1.902,4.326-4.248,4.326s-4.25-1.938-4.25-4.326C2.378,86.431,4.28,84.497,6.628,84.497z
	 M27.876,47.728c0-2.388-0.221-4.326,2.125-4.326s2.125,1.938,2.125,4.326v51.911h-4.25l0,0l0,0c0-4.778-3.804-8.653-8.498-8.653
	V86.66c3.279,0,6.242,1.298,8.498,3.368V47.728z M47,78.008c-2.346,0-2.125-1.936-2.125-4.326V56.38c0-2.39-0.221-4.326,2.125-4.326
	c2.346,0,2.125,1.936,2.125,4.326v17.301C49.125,76.072,49.346,78.008,47,78.008z M47,86.66c2.346,0,4.25,1.936,4.25,4.326
	c0,2.388-1.904,4.326-4.25,4.326c-2.346,0-4.25-1.938-4.25-4.326C42.749,88.594,44.654,86.66,47,86.66z M63.999,43.402
	c2.346,0,2.125,1.938,2.125,4.326v38.971c3.874-5.265,10.037-8.692,16.999-8.692v4.326c-9.389,0-16.999,7.748-16.999,17.305h-4.25
	c0-0.591,0.043-1.17,0.087-1.746c-0.115-0.722-0.087-1.609-0.087-2.581V47.728C61.874,45.34,61.653,43.402,63.999,43.402z"/>
</svg>
